<svg width="329" height="91" viewBox="0 0 329 91" fill="none" xmlns="http://www.w3.org/2000/svg">
<path d="M88.033 27.9292L88.9991 27.2864C89.192 27.158 89.4399 27.1463 89.644 27.256C89.8202 27.3507 89.9407 27.5236 89.9685 27.7217L90.0787 28.5053C90.0969 28.6354 90.1269 28.7635 90.1681 28.8882L90.6468 30.3351C90.8962 31.0891 91.0085 31.8816 90.9784 32.6752L90.9283 33.9939C90.9174 34.2811 90.832 34.5605 90.6805 34.8048L89.9489 35.9845C89.8858 36.0863 89.7533 36.1197 89.6495 36.06C89.547 36.0012 89.4163 36.0329 89.3522 36.1323L88.5233 37.4177C88.3699 37.6556 88.1635 37.8547 87.9203 37.9994L87.727 38.1144C86.7612 38.689 86.2345 39.7872 86.3909 40.9001L86.512 41.7622L87.2346 44.4887L88.4054 47.4538L89.9831 51.5353C90.0372 51.6752 90.0812 51.8188 90.1147 51.9651C90.2717 52.651 90.6554 53.2639 91.2036 53.705L92.9505 55.1105L93.7612 55.928C95.0214 57.1988 95.9883 58.7299 96.5942 60.4139C96.9693 61.4564 97.2015 62.5449 97.2844 63.6498L97.3123 64.0219C97.4111 65.3383 97.2577 66.6616 96.8604 67.9205L96.474 69.1452C96.4025 69.3716 96.2959 69.5853 96.1581 69.7785L94.8475 71.6155C94.7192 71.7954 94.4598 71.8166 94.3039 71.66C94.0619 71.4169 93.6497 71.6218 93.6974 71.9615L93.742 72.279C93.7547 72.369 93.7406 72.4608 93.7015 72.5429L92.9885 74.041C92.7864 74.4655 92.535 74.8647 92.2395 75.2304L91.7206 75.8726C91.0641 76.6849 90.2448 77.3508 89.3154 77.8274C88.5721 78.2086 87.7702 78.4625 86.943 78.5788L84.7168 78.8917L81.9534 79.0825C80.9857 79.1493 80.0292 79.3293 79.1035 79.6187L77.8554 80.0089C77.4278 80.1425 77.0242 80.3432 76.6596 80.6034C75.9474 81.1116 75.0953 81.3867 74.2204 81.3907L72.5128 81.3987L70.6845 81.26C70.2883 81.2299 69.9131 81.0699 69.6171 80.8048C69.1738 80.4079 68.5634 80.255 67.9854 80.396L67.0651 80.6205C66.5977 80.7345 66.1123 80.7538 65.6373 80.6772L64.5968 80.5094C64.0307 80.4181 63.4974 80.1833 63.0477 79.8274C62.3713 79.2919 61.927 78.5166 61.8069 77.6623L61.5626 75.9242L61.458 75.1796C61.3206 74.2021 61.3253 73.2098 61.472 72.2337L62.0076 68.6702C62.0347 68.4896 62.1271 68.3251 62.2673 68.2081C62.7168 67.8327 63.4037 68.0973 63.4852 68.6772L63.5778 69.3357C63.5991 69.4874 63.589 69.6418 63.5481 69.7894L63.1096 71.3705L62.7255 74.242C62.6641 74.7012 62.7316 75.1684 62.9206 75.5914C63.315 76.4743 64.1837 77.05 65.1504 77.0692L65.9267 77.0847C66.5371 77.0969 67.1412 76.9586 67.6855 76.6821L69.32 75.852L72.7261 73.5257L74.4934 72.633C75.5094 72.1197 76.6246 71.8327 77.7622 71.7916C78.5328 71.7638 79.2951 71.623 80.0248 71.3738L80.522 71.204C81.2063 70.9703 81.9113 70.802 82.6274 70.7013L82.7358 70.6861C83.8877 70.5242 85.0564 70.5227 86.2087 70.6816L86.2443 70.6865C87.1367 70.8096 88.0395 70.8385 88.9379 70.7727L90.6563 70.6469C90.8487 70.6329 91.0395 70.6009 91.2261 70.5514C92.1914 70.2956 92.9753 69.5918 93.3332 68.6595L93.9376 67.085C94.0928 66.6808 94.2066 66.262 94.2773 65.835L94.7755 62.8265C94.9408 61.8285 94.8454 60.8048 94.4985 59.8546C94.0846 58.7205 93.3311 57.7416 92.3408 57.0512L91.9726 56.7945C91.6724 56.5853 91.3568 56.3989 91.0287 56.237L88.1872 54.8354C87.2927 54.3942 86.53 53.7254 85.9756 52.8963L85.5771 52.3004C85.5161 52.2092 85.4696 52.1091 85.4391 52.0037L85.2934 51.5C85.2345 51.2963 85.3297 51.0796 85.5196 50.9852C85.6457 50.9225 85.7942 50.9242 85.9189 50.9897L86.1269 51.0989C86.8712 51.4898 87.6966 50.7358 87.3747 49.9593L86.6715 48.2631L85.8592 46.228C85.471 45.2556 85.2012 44.2401 85.0555 43.2033L84.8851 41.9909L84.5006 39.2549C84.3384 38.1013 84.3314 36.9312 84.4795 35.7758L84.5286 35.3925C84.6584 34.3803 84.9064 33.3867 85.2675 32.4321L85.4354 31.9882C85.6935 31.3058 86.023 30.6526 86.4184 30.0394L87.2989 28.674C87.4898 28.3779 87.7397 28.1244 88.033 27.9292Z" fill="black"/>
<path d="M33.3982 23.6239L36.0485 24.3856C36.211 24.4323 36.343 24.5511 36.4064 24.7078C36.4862 24.9048 36.4453 25.1301 36.3015 25.2865L35.6212 26.0264L34.8065 27.0068C34.6458 27.2 34.419 27.3265 34.1701 27.3615C34.0112 27.3838 33.8492 27.368 33.6976 27.3152L31.8551 26.6743C31.2828 26.4752 30.6921 26.3339 30.0917 26.2525L25.8053 25.6714L19.2524 25.4611L15.7871 25.7651C15.602 25.7813 15.5714 26.0392 15.7475 26.0983C15.7561 26.1012 15.765 26.1035 15.774 26.105L17.9879 26.4716C19.9462 26.7958 21.8648 27.3262 23.7116 28.0537L26.6935 29.2283C26.8982 29.309 27.0965 29.4046 27.287 29.5146L34.963 33.9453C35.5542 34.2865 35.4387 35.172 34.7797 35.3501C34.6164 35.3942 34.4431 35.3831 34.2868 35.3186L23.9887 31.0653C22.7973 30.5733 21.5674 30.1759 20.3091 29.8961C18.2243 29.4326 16.3028 29.0462 14.6498 28.7932C11.3425 28.287 6.38388 28.8171 5.47087 32.0359C4.41599 35.7549 6.8548 39.1897 15.9294 40.7107C18.8664 41.203 21.8666 41.0437 24.8155 40.6292C26.7993 40.0994 28.7395 39.418 30.6189 38.591L34.7202 36.7863L37.5659 35.9802C38.4933 35.7175 39.2465 36.7508 38.7127 37.5533C38.5908 37.7365 38.4138 37.8762 38.2074 37.9522L34.0576 39.4806C33.2849 39.7652 32.5378 40.1147 31.8241 40.5253L31.3108 40.8207C30.346 41.3758 29.3397 41.8553 28.301 42.2551L27.6047 42.5231C25.5182 43.3261 23.3307 43.8367 21.1042 44.0402C19.2524 44.2096 17.3872 44.1653 15.5455 43.9082L14.4669 43.7577C13.2671 43.5902 12.0851 43.3137 10.9355 42.9315L9.4478 42.4369C8.14788 42.0047 6.93701 41.3406 5.87385 40.4768L5.00016 39.7669C4.4184 39.2942 3.93568 38.7112 3.57969 38.0516C3.16306 37.2795 2.93042 36.4216 2.89994 35.5449L2.89671 35.4519C2.88411 34.8281 2.95532 34.2054 3.10842 33.6005L3.31673 32.7774C3.6676 31.3912 4.26989 30.0811 5.09369 28.9122C5.85033 27.8387 6.78252 26.9003 7.85109 26.1366L8.08924 25.9664C9.46873 24.9805 11.0227 24.2652 12.6687 23.8582L14.7328 23.3479C16.4041 22.9348 18.1143 22.6988 19.835 22.6438L21.7437 22.5828C24.2962 22.5013 26.8508 22.6494 29.3768 23.0253L33.3982 23.6239Z" fill="black"/>
<path d="M38.5382 18.8565L37.8511 19.894C37.4904 20.4385 37.3415 21.0962 37.4324 21.743L37.6252 23.1149C37.665 23.3982 37.877 23.6268 38.1566 23.6879C38.4916 23.7611 38.829 23.5749 38.9457 23.2525L39.3285 22.1948C39.4251 21.9279 39.5783 21.685 39.7777 21.4828L40.5972 20.6516L43.3175 18.0069L46.523 15.5956L49.2727 13.9649L52.1534 12.7305L55.3028 11.7977L58.0079 11.1912L58.621 11.1426C60.6685 10.9804 62.727 11.0195 64.7669 11.2594C66.9953 11.6936 69.1982 12.3488 71.3 13.2069L74.1222 14.5071L77.128 16.3094L77.4181 16.4884C78.2893 17.0261 79.4347 16.6677 79.8439 15.7293C80.1167 15.1038 79.9846 14.3755 79.5096 13.8856L79.3044 13.6741C79.1715 13.5371 79.0207 13.4186 78.8561 13.3218L76.5148 11.9462L72.8648 10.1213C70.4421 9.19126 67.9239 8.43885 65.3871 7.89175L61.7231 7.57715L60.2522 7.63264C59.0341 7.6786 57.8213 7.81765 56.6244 8.04858C55.4264 8.27974 54.2478 8.60228 53.099 9.01338L51.7013 9.51352L50.4483 10.1097C47.9899 11.2796 45.6416 12.6679 43.4316 14.2579L39.5582 17.6836C39.1685 18.0284 38.8255 18.4227 38.5382 18.8565Z" fill="black"/>
<path d="M86.088 18.3252L85.7165 18.8108C85.0724 19.6526 83.7326 19.3009 83.5851 18.2513C83.5401 17.9307 83.6271 17.6055 83.8263 17.3502L85.4961 15.2108C86.0869 14.4538 86.816 13.8157 87.6447 13.3305L88.743 12.6873C89.6569 12.1521 90.6277 11.7205 91.6374 11.4006L93.2966 10.8748C94.881 10.3727 96.5047 10.004 98.1506 9.77272L99.3104 9.60972C100.509 9.44124 101.722 9.39159 102.93 9.46149L103.883 9.51659C105.321 9.59973 106.734 9.9253 108.063 10.4795C109.464 11.0635 110.749 11.8922 111.859 12.9269L112.658 13.672C113.345 14.3124 113.921 15.0621 114.363 15.8908L115.035 17.1527C115.558 18.1337 115.712 19.2698 115.469 20.3546C115.276 21.2145 114.843 22.0018 114.219 22.6247L112.231 24.611L110.951 25.7092C109.81 26.6887 108.587 27.5694 107.297 28.3416C105.466 29.4368 103.51 30.307 101.471 30.9334L99.3357 31.5892L94.2418 32.7311C94.0323 32.7781 93.8167 32.792 93.6028 32.7724C92.6505 32.685 91.8833 31.954 91.7502 31.007L91.5942 29.8967C91.5614 29.6632 91.66 29.4305 91.8506 29.2917C91.9813 29.1965 92.1432 29.1544 92.3037 29.1739L93.2683 29.2912C93.6073 29.3324 93.9507 29.3174 94.2849 29.2468L98.5774 28.3398L102.527 27.0528C103.69 26.6737 104.823 26.2075 105.916 25.6581L107.268 24.9784C108.459 24.3798 109.558 23.6127 110.53 22.7008L111.571 21.9351C112.956 20.9163 113.337 19.0102 112.451 17.5369C112.281 17.2555 112.071 17.0006 111.827 16.7807L110.034 15.1642C109.835 14.9852 109.612 14.8358 109.37 14.7209L109.135 14.6088C108.094 14.1129 106.847 14.4113 106.144 15.3251C105.93 15.6025 105.659 15.8309 105.35 15.9947L98.9438 19.3858C98.6347 19.5495 98.4272 19.8562 98.3904 20.2041C98.3561 20.5289 98.1726 20.8193 97.8941 20.9898L95.2976 22.5795C95.0711 22.7183 94.9862 23.0059 95.1012 23.2454C95.202 23.4554 95.1503 23.7069 94.9746 23.86L93.5377 25.1126C92.5121 26.0066 90.936 25.8047 90.169 24.681C89.7096 24.0081 89.6459 23.1407 90.0018 22.4079L90.3106 21.7721C90.5182 21.3447 90.8109 20.9642 91.1707 20.6539L92.6283 19.3969C92.9284 19.138 93.194 18.8417 93.4185 18.5151C93.6512 18.1767 93.9279 17.8708 94.2414 17.6055L94.9308 17.022C95.6142 16.4436 96.3634 15.948 97.163 15.5454L100.052 14.0907C100.094 14.0697 100.137 14.0526 100.182 14.0396L102.217 13.4483C102.611 13.3339 102.553 12.759 102.145 12.725C102.124 12.7233 102.104 12.7233 102.083 12.725L100.012 12.8997C98.732 13.0076 97.4623 13.2133 96.2139 13.5149L94.6592 13.8905C93.7136 14.119 92.7854 14.4143 91.8816 14.7743L90.5998 15.2848C89.3446 15.7848 88.1807 16.4888 87.1552 17.3684L86.2956 18.1056C86.219 18.1714 86.1494 18.245 86.088 18.3252Z" fill="black"/>
<path d="M28.4235 34.8332L32.0675 35.9261C32.9156 36.1805 33.8337 36.0287 34.5548 35.5148L35.1234 35.1096C35.1248 35.1086 35.1264 35.108 35.1281 35.1077C35.1385 35.1063 35.1408 35.0922 35.1313 35.0876L24.9293 30.0812C24.6251 29.9319 24.3008 29.8276 23.9666 29.7715L12.1941 27.7961C12.0655 27.7745 11.9334 27.7905 11.8137 27.8421C11.2013 28.1063 11.2992 29.0033 11.9541 29.1292L19.7273 30.6235C19.928 30.662 19.9974 30.9139 19.8448 31.0498C19.7004 31.1784 19.7533 31.4155 19.9387 31.4705L28.0785 33.8847C28.2808 33.9447 28.3677 34.183 28.2514 34.3591C28.1355 34.5348 28.2218 34.7727 28.4235 34.8332Z" fill="black"/>
<path d="M52.3832 39.2949L52.4224 39.1691C52.6429 38.4611 53.5738 38.3028 54.016 38.898C54.0511 38.9452 54.0815 38.9958 54.1068 39.0489L55.17 41.2816C55.4331 41.8341 55.7717 42.3475 56.1759 42.807L57.634 44.4643C57.7477 44.5936 57.9043 44.6774 58.075 44.7003C58.4612 44.7521 58.8177 44.4845 58.8757 44.0991L58.9201 43.8038C58.9619 43.526 58.8869 43.2433 58.713 43.0227L57.0584 40.9244L55.7697 38.73L54.2999 35.7736C53.9497 35.0693 53.504 34.4168 52.9753 33.8345L52.8548 33.7018C52.0211 32.7835 50.9803 32.0773 49.819 31.6417L49.1618 31.3952C48.6858 31.2167 48.1807 31.1287 47.6724 31.1358L47.5355 31.1377C45.928 31.1602 44.5009 32.1717 43.9473 33.6811C43.7275 34.2804 43.6589 34.9248 43.7478 35.557L43.882 36.5117C43.9858 37.2507 44.1962 37.9708 44.5066 38.6495L45.0395 39.815C45.2754 40.3308 45.6421 40.7759 46.1033 41.1061C46.7819 41.592 47.6214 41.7982 48.4479 41.682L48.5036 41.6742C48.983 41.6068 49.4424 41.4376 49.851 41.1779L51.9759 39.827C52.1704 39.7034 52.3147 39.5149 52.3832 39.2949Z" fill="black"/>
<path d="M46.114 34.5545L45.2726 36.0414C45.2211 36.1324 45.2011 36.2379 45.2156 36.3415L45.2903 36.8729C45.2981 36.9282 45.3246 36.979 45.3654 37.0169C45.5328 37.1725 45.8028 37.0317 45.771 36.8054L45.7455 36.6236C45.7361 36.557 45.7488 36.4892 45.7816 36.4305L46.659 34.861C46.7852 34.6354 46.5986 34.3629 46.3426 34.3988C46.2464 34.4124 46.1619 34.4699 46.114 34.5545Z" fill="#F3D4A8"/>
<path d="M52.0009 36.1078L51.3654 35.4031C51.3186 35.3512 51.2609 35.3103 51.1964 35.2833L49.6937 34.6527L50.3409 36.022C50.4046 36.1568 50.4014 36.3135 50.3322 36.4455L50.1667 36.7613C49.9506 37.1738 50.3954 37.6186 50.8079 37.4025L51.8686 36.8467C52.1434 36.7027 52.2087 36.3382 52.0009 36.1078Z" fill="#F3D4A8"/>
<path d="M74.7255 76.0842L73.7746 76.7597C73.2099 77.1608 73.4917 78.0503 74.1844 78.053L75.0093 78.0563C75.0679 78.0565 75.1264 78.0495 75.1833 78.0354L77.1188 77.5562C77.18 77.5411 77.2389 77.5178 77.294 77.4872L79.5431 76.2357C79.6198 76.1931 79.7036 76.165 79.7904 76.1528L82.3214 75.7971L84.5399 75.4853L87.3241 75.3847C87.3934 75.3822 87.4621 75.3696 87.5278 75.3472L88.8849 74.8856C88.9217 74.8732 88.9573 74.8577 88.9915 74.8394L90.9631 73.7851C91.0163 73.7566 91.061 73.7145 91.0925 73.663L91.229 73.44C91.3872 73.1816 91.0826 72.8895 90.8311 73.0583C90.7885 73.0869 90.7389 73.1033 90.6876 73.1058L89.1803 73.1797C89.139 73.1817 89.0976 73.1802 89.0565 73.175L87.008 72.9172C86.9392 72.9085 86.9054 72.8287 86.9472 72.7734C86.9896 72.7171 86.9539 72.636 86.8838 72.6293L86.258 72.5691C86.1489 72.5586 86.0398 72.5889 85.9519 72.6543L85.8708 72.7145C85.7676 72.7912 85.6453 72.8382 85.5172 72.8503L80.8431 73.2936C80.7905 73.2986 80.7386 73.3094 80.6884 73.3259L78.6768 73.9855C78.5384 74.0308 78.5082 74.213 78.6245 74.3007C78.7309 74.3808 78.7165 74.5448 78.5978 74.6052L77.776 75.0234C77.7446 75.0394 77.7121 75.053 77.6788 75.0641L74.9121 75.9894C74.8456 76.0116 74.7827 76.0436 74.7255 76.0842Z" fill="#F3D4A8"/>
<path d="M87.5225 36.0024L87.3384 36.223C86.9594 36.6774 86.2214 36.3613 86.2887 35.7734C86.2955 35.714 86.3113 35.6559 86.3354 35.6011L86.4511 35.3382C86.6755 34.8285 87.3999 34.8324 87.6189 35.3444C87.713 35.5644 87.6757 35.8186 87.5225 36.0024Z" fill="#F3D4A8"/>
<path d="M89.5791 31.7891L89.5738 31.8082C89.4939 32.0914 89.1336 32.1761 88.9358 31.9582C88.778 31.7842 88.5007 31.7968 88.3593 31.9845L87.9983 32.4635C87.9766 32.4924 87.9442 32.5114 87.9084 32.5165C87.7898 32.5331 87.7088 32.3999 87.7782 32.3023L88.4029 31.4234C88.5725 31.1849 88.8893 31.1033 89.153 31.2302L89.3752 31.3371C89.5439 31.4182 89.63 31.6089 89.5791 31.7891Z" fill="#F3D4A8"/>
<path d="M86.9776 56.6424L91.8387 56.417C92.6471 56.3796 93.3647 56.9302 93.5378 57.7207C93.7633 58.7503 92.9849 59.7267 91.9309 59.7365L89.3808 59.76L84.9773 60.3789C84.6632 60.423 84.3633 60.5381 84.1004 60.7155L83.4095 61.1815C82.5601 61.7546 81.399 61.3209 81.1331 60.3313L81.0538 60.0362C80.951 59.6533 81.0803 59.2455 81.3851 58.992L83.9262 56.8779C84.0598 56.7667 84.2536 56.9068 84.1899 57.0686C84.1396 57.1966 84.256 57.3276 84.389 57.2925L86.6911 56.6863C86.7848 56.6616 86.8808 56.6469 86.9776 56.6424Z" fill="black"/>
<path d="M74.7712 59.081L79.7483 59.0579C79.8412 59.0575 79.9308 59.0928 79.9984 59.1566C80.0434 59.199 80.0767 59.2523 80.0953 59.3113L80.2027 59.6527C80.5661 60.8079 79.6653 61.9709 78.456 61.9079L78.408 61.9054L75.586 62.0781C75.2498 62.0987 74.916 62.1481 74.5882 62.2258L73.7758 62.4183C72.8553 62.6365 72.051 63.194 71.5237 63.9794L70.9242 64.8722C70.7944 65.0656 70.7405 65.3001 70.7729 65.5307L70.8549 66.1143C70.8823 66.3089 70.7467 66.4889 70.552 66.5162C70.3734 66.5413 70.2043 66.4288 70.1584 66.2544L69.6402 64.2856C69.4543 63.5792 69.5685 62.8274 69.9559 62.2082L70.452 61.4153C70.9955 60.5465 71.8023 59.8741 72.7548 59.496L72.8753 59.4482C73.4788 59.2086 74.1219 59.0841 74.7712 59.081Z" fill="black"/>
<path d="M72.4781 66.3845L72.695 65.613C72.7173 65.5338 72.7316 65.4526 72.7379 65.3705C72.7961 64.6116 73.514 64.0808 74.2567 64.2479L74.5097 64.3048C74.7727 64.3639 75.0145 64.4942 75.2087 64.6814L75.4335 64.8981C76.0845 65.5258 76.3607 66.4478 76.162 67.33L76.0873 67.6613L75.6287 69.4784C75.5802 69.6703 75.4775 69.8442 75.3327 69.9791C74.724 70.5466 73.7284 70.194 73.6126 69.3698L73.5066 68.6157C73.4877 68.4814 73.525 68.3452 73.6097 68.2392C73.8248 67.9702 73.7048 67.5692 73.3773 67.4625L72.9861 67.3349C72.5893 67.2056 72.3652 66.7863 72.4781 66.3845Z" fill="black"/>
<path d="M83.5574 63.5457L82.9791 66.7323C82.8998 67.1691 82.351 67.3211 82.0584 66.9872C81.9752 66.8923 81.9286 66.771 81.9269 66.6449L81.891 64.0257C81.8896 63.9207 81.9059 63.8163 81.9393 63.7169L82.1209 63.1762C82.3498 62.4945 83.317 62.5026 83.5345 63.1881C83.5712 63.3037 83.579 63.4264 83.5574 63.5457Z" fill="black"/>
<path d="M89.063 64.4331L89.0948 65.4577C89.1091 65.9189 89.3766 66.3346 89.7904 66.5386C90.4508 66.8643 91.2482 66.5504 91.5094 65.8619L91.9487 64.7044C92.0333 64.4815 91.9441 64.2302 91.738 64.1105L91.7161 64.0977C91.388 63.9071 91.4061 63.4273 91.7477 63.262C91.8666 63.2045 91.9561 63.1 91.9945 62.9736L92.708 60.6294C92.7577 60.4662 92.7421 60.2901 92.6646 60.1381C92.4649 59.7466 91.945 59.6566 91.6254 59.9584L89.9782 61.5132C89.6043 61.8661 89.3562 62.3316 89.2716 62.8386L89.1019 63.8551C89.0701 64.046 89.057 64.2396 89.063 64.4331Z" fill="black"/>
<path d="M41.529 55.0122L41.5499 52.7599C41.5527 52.4556 41.846 52.2385 42.1379 52.3246C42.3103 52.3755 42.437 52.5224 42.4621 52.7004L42.7453 54.7161C42.7716 54.9028 42.8123 55.0871 42.8673 55.2673L43.2017 56.365C43.7143 58.0473 44.4668 59.6468 45.4361 61.1143L46.8006 63.1801L47.7555 64.4366C48.9939 66.0662 50.4588 67.5103 52.1058 68.7253C53.2242 69.5503 54.42 70.2648 55.6763 70.8588L59.3208 72.5816L60.171 73.042C60.688 73.3218 60.9704 73.8989 60.8744 74.4788C60.7346 75.3231 59.867 75.8371 59.0594 75.5541L55.0906 74.1636C54.7239 74.0351 54.3738 73.8636 54.0475 73.6526L52.8381 72.8706L51.6353 72.0928C51.304 71.8785 50.989 71.64 50.693 71.379L49.8464 70.6327L49.2261 69.9657L48.0475 68.6985C46.8514 67.4126 45.7924 66.0057 44.8875 64.5006L43.8864 62.8355L42.9529 60.7459C42.3314 59.3549 41.9084 57.8834 41.6964 56.3746L41.55 55.3326C41.535 55.2265 41.528 55.1194 41.529 55.0122Z" fill="black"/>
<path d="M113.059 53.2512C112.622 53.2512 112.09 53.2227 111.463 53.1657C109.43 53.0137 107.644 52.9377 106.105 52.9377C105.687 52.4057 105.478 51.7977 105.478 51.1137C106.105 51.1137 106.552 51.0092 106.818 50.8002C107.103 50.5722 107.245 50.1922 107.245 49.6602V36.2652C107.245 35.7522 107.103 35.3912 106.818 35.1822C106.552 34.9542 106.105 34.8402 105.478 34.8402C105.478 34.1182 105.687 33.5197 106.105 33.0447C107.549 33.0447 108.851 33.0067 110.01 32.9307C111.169 32.8547 111.853 32.8072 112.062 32.7882C112.708 32.7312 113.173 32.7027 113.458 32.7027C115.567 32.7027 117.334 33.1397 118.759 34.0137C120.203 34.8877 121.267 36.0752 121.951 37.5762C122.654 39.0582 123.006 40.7207 123.006 42.5637C123.006 44.5967 122.645 46.4207 121.923 48.0357C121.22 49.6317 120.127 50.9047 118.645 51.8547C117.163 52.7857 115.301 53.2512 113.059 53.2512ZM112.831 50.8857C114.465 50.8857 115.719 50.2682 116.593 49.0332C117.486 47.7792 117.933 45.7652 117.933 42.9912C117.933 40.3122 117.458 38.3077 116.508 36.9777C115.577 35.6477 114.275 34.9827 112.603 34.9827C112.28 34.9827 112.052 35.0017 111.919 35.0397V50.8287C112.109 50.8667 112.413 50.8857 112.831 50.8857ZM132.894 50.0307C134.091 50.0307 135.203 49.6507 136.229 48.8907C136.381 49.0427 136.514 49.2707 136.628 49.5747C136.742 49.8787 136.799 50.1447 136.799 50.3727C136.799 50.7147 136.571 51.1137 136.115 51.5697C135.659 52.0067 135.022 52.3867 134.205 52.7097C133.407 53.0327 132.505 53.1942 131.498 53.1942C130.092 53.1942 128.857 52.8902 127.793 52.2822C126.748 51.6742 125.94 50.7907 125.37 49.6317C124.8 48.4727 124.515 47.1047 124.515 45.5277C124.515 43.9127 124.819 42.4972 125.427 41.2812C126.054 40.0652 126.909 39.1342 127.992 38.4882C129.075 37.8232 130.301 37.4907 131.669 37.4907C133.398 37.4907 134.775 37.9942 135.801 39.0012C136.827 40.0082 137.34 41.4047 137.34 43.1907C137.34 44.0267 137.207 44.6917 136.941 45.1857C136.675 45.6607 136.2 45.8982 135.516 45.8982H129.36C129.474 48.6532 130.652 50.0307 132.894 50.0307ZM131.498 39.4572C130.909 39.4572 130.415 39.7897 130.016 40.4547C129.617 41.1007 129.398 42.1932 129.36 43.7322H132.239C132.543 43.7322 132.742 43.6277 132.837 43.4187C132.932 43.2097 132.98 42.8867 132.98 42.4497C132.98 41.3287 132.847 40.5497 132.581 40.1127C132.315 39.6757 131.954 39.4572 131.498 39.4572ZM154.052 53.3367C152.057 53.3367 150.319 52.9092 148.837 52.0542C147.355 51.1992 146.215 50.0117 145.417 48.4917C144.619 46.9717 144.22 45.2332 144.22 43.2762C144.22 40.9962 144.609 39.0677 145.388 37.4907C146.186 35.9137 147.288 34.7262 148.694 33.9282C150.1 33.1302 151.725 32.7312 153.568 32.7312C154.765 32.7312 155.914 32.9402 157.016 33.3582C157.301 33.2252 157.71 33.0922 158.242 32.9592C158.793 32.8262 159.22 32.7502 159.524 32.7312C160.075 34.1372 160.351 36.2842 160.351 39.1722H157.586C157.396 37.9562 156.921 37.0157 156.161 36.3507C155.42 35.6857 154.527 35.3532 153.482 35.3532C152.228 35.3532 151.24 35.8947 150.518 36.9777C149.815 38.0417 149.464 39.8942 149.464 42.5352C149.464 45.4612 149.815 47.5322 150.518 48.7482C151.221 49.9642 152.295 50.5722 153.739 50.5722C154.271 50.5722 154.717 50.5152 155.078 50.4012C155.439 50.2872 155.743 50.0972 155.99 49.8312V46.5822C155.99 46.0882 155.772 45.7367 155.335 45.5277C154.917 45.2997 154.252 45.1857 153.34 45.1857C153.34 44.8437 153.406 44.4447 153.539 43.9887C153.672 43.5327 153.834 43.2002 154.024 42.9912H160.18C160.921 42.9912 161.434 43.2097 161.719 43.6467C162.004 44.0837 162.146 44.5017 162.146 44.9007C162.146 45.0907 162.099 45.2617 162.004 45.4137C161.32 45.4137 160.788 45.4897 160.408 45.6417V48.9192C160.408 49.5272 160.512 49.9547 160.721 50.2017C160.854 50.3347 160.921 50.5057 160.921 50.7147C160.921 51.0567 160.607 51.4367 159.98 51.8547C159.353 52.2727 158.508 52.6242 157.444 52.9092C156.399 53.1942 155.268 53.3367 154.052 53.3367ZM172.921 37.4622C173.776 37.4622 174.403 37.6807 174.802 38.1177C175.201 38.5547 175.401 39.1532 175.401 39.9132C175.401 40.7302 175.182 41.3952 174.745 41.9082C174.327 42.4212 173.757 42.6777 173.035 42.6777C172.408 42.6777 171.895 42.4972 171.496 42.1362C171.116 41.7752 170.926 41.3477 170.926 40.8537C170.926 40.5497 170.955 40.3122 171.012 40.1412C170.328 40.3122 169.748 40.6067 169.273 41.0247V49.5747C169.273 50.0497 169.34 50.4107 169.473 50.6577C169.606 50.9047 169.862 51.0947 170.242 51.2277C170.641 51.3417 171.23 51.3987 172.009 51.3987C172.009 51.7407 171.971 52.0352 171.895 52.2822C171.819 52.5102 171.677 52.7287 171.468 52.9377H163.858C163.421 52.5007 163.203 51.9877 163.203 51.3987C163.754 51.3987 164.143 51.2847 164.371 51.0567C164.618 50.8097 164.742 50.4012 164.742 49.8312V41.5947C164.742 41.0817 164.599 40.7207 164.314 40.5117C164.048 40.3027 163.564 40.1982 162.861 40.1982V38.9157C163.488 38.5547 164.314 38.2412 165.34 37.9752C166.385 37.6902 167.193 37.5477 167.763 37.5477C168.219 37.5477 168.542 37.7092 168.732 38.0322C168.922 38.3552 169.017 39.0012 169.017 39.9702C169.359 39.3242 169.9 38.7447 170.641 38.2317C171.382 37.7187 172.142 37.4622 172.921 37.4622ZM182.902 53.3082C180.812 53.3082 179.14 52.6527 177.886 51.3417C176.632 50.0117 176.005 48.1212 176.005 45.6702C176.005 43.9222 176.299 42.4307 176.888 41.1957C177.496 39.9607 178.342 39.0297 179.425 38.4027C180.508 37.7757 181.762 37.4622 183.187 37.4622C184.555 37.4622 185.752 37.7662 186.778 38.3742C187.823 38.9632 188.63 39.8372 189.2 40.9962C189.789 42.1552 190.084 43.5612 190.084 45.2142C190.084 46.9432 189.78 48.4157 189.172 49.6317C188.583 50.8477 187.747 51.7692 186.664 52.3962C185.581 53.0042 184.327 53.3082 182.902 53.3082ZM183.13 51.2562C183.795 51.2562 184.289 50.8762 184.612 50.1162C184.935 49.3562 185.096 47.9502 185.096 45.8982C185.096 44.1692 185.011 42.8392 184.84 41.9082C184.669 40.9772 184.431 40.3407 184.127 39.9987C183.823 39.6567 183.434 39.4857 182.959 39.4857C182.294 39.4857 181.79 39.8657 181.448 40.6257C181.125 41.3857 180.964 42.8107 180.964 44.9007C180.964 46.6107 181.049 47.9312 181.22 48.8622C181.391 49.7742 181.629 50.4012 181.933 50.7432C182.256 51.0852 182.655 51.2562 183.13 51.2562ZM199.942 50.0307C201.139 50.0307 202.25 49.6507 203.276 48.8907C203.428 49.0427 203.561 49.2707 203.675 49.5747C203.789 49.8787 203.846 50.1447 203.846 50.3727C203.846 50.7147 203.618 51.1137 203.162 51.5697C202.706 52.0067 202.07 52.3867 201.253 52.7097C200.455 53.0327 199.552 53.1942 198.545 53.1942C197.139 53.1942 195.904 52.8902 194.84 52.2822C193.795 51.6742 192.988 50.7907 192.418 49.6317C191.848 48.4727 191.563 47.1047 191.563 45.5277C191.563 43.9127 191.867 42.4972 192.475 41.2812C193.102 40.0652 193.957 39.1342 195.04 38.4882C196.123 37.8232 197.348 37.4907 198.716 37.4907C200.445 37.4907 201.823 37.9942 202.849 39.0012C203.875 40.0082 204.388 41.4047 204.388 43.1907C204.388 44.0267 204.255 44.6917 203.989 45.1857C203.723 45.6607 203.248 45.8982 202.564 45.8982H196.408C196.522 48.6532 197.7 50.0307 199.942 50.0307ZM198.545 39.4572C197.956 39.4572 197.462 39.7897 197.063 40.4547C196.664 41.1007 196.446 42.1932 196.408 43.7322H199.286C199.59 43.7322 199.79 43.6277 199.885 43.4187C199.98 43.2097 200.027 42.8867 200.027 42.4497C200.027 41.3287 199.894 40.5497 199.628 40.1127C199.362 39.6757 199.001 39.4572 198.545 39.4572ZM221.999 52.1682C221.714 52.4532 221.201 52.6812 220.46 52.8522C219.738 53.0232 219.045 53.1087 218.38 53.1087C217.563 53.1087 216.955 52.9567 216.556 52.6527C216.176 52.3487 215.986 51.8642 215.986 51.1992V42.3072C215.986 41.5662 215.824 41.0342 215.501 40.7112C215.178 40.3882 214.751 40.2267 214.219 40.2267C213.44 40.2267 212.784 40.5402 212.252 41.1672V49.8597C212.252 50.4107 212.366 50.8097 212.594 51.0567C212.841 51.3037 213.25 51.4272 213.82 51.4272C213.82 51.9972 213.601 52.5007 213.164 52.9377H206.695C206.239 52.4817 206.011 51.9782 206.011 51.4272C206.581 51.4272 206.989 51.3037 207.236 51.0567C207.483 50.8097 207.607 50.4107 207.607 49.8597V41.5377C207.607 41.0247 207.464 40.6637 207.179 40.4547C206.894 40.2267 206.4 40.1127 205.697 40.1127V38.8302C206.305 38.4882 207.16 38.1747 208.262 37.8897C209.383 37.6047 210.229 37.4622 210.799 37.4622C211.236 37.4622 211.568 37.6047 211.796 37.8897C212.043 38.1557 212.186 38.6687 212.224 39.4287C212.718 38.8207 213.335 38.3457 214.076 38.0037C214.817 37.6427 215.653 37.4622 216.584 37.4622C217.952 37.4622 218.959 37.8137 219.605 38.5167C220.27 39.2007 220.603 40.3312 220.603 41.9082V49.6887C220.603 50.6197 221.059 51.1707 221.971 51.3417L221.999 52.1682ZM231.67 50.0307C232.867 50.0307 233.979 49.6507 235.005 48.8907C235.157 49.0427 235.29 49.2707 235.404 49.5747C235.518 49.8787 235.575 50.1447 235.575 50.3727C235.575 50.7147 235.347 51.1137 234.891 51.5697C234.435 52.0067 233.798 52.3867 232.981 52.7097C232.183 53.0327 231.281 53.1942 230.274 53.1942C228.868 53.1942 227.633 52.8902 226.569 52.2822C225.524 51.6742 224.716 50.7907 224.146 49.6317C223.576 48.4727 223.291 47.1047 223.291 45.5277C223.291 43.9127 223.595 42.4972 224.203 41.2812C224.83 40.0652 225.685 39.1342 226.768 38.4882C227.851 37.8232 229.077 37.4907 230.445 37.4907C232.174 37.4907 233.551 37.9942 234.577 39.0012C235.603 40.0082 236.116 41.4047 236.116 43.1907C236.116 44.0267 235.983 44.6917 235.717 45.1857C235.451 45.6607 234.976 45.8982 234.292 45.8982H228.136C228.25 48.6532 229.428 50.0307 231.67 50.0307ZM230.274 39.4572C229.685 39.4572 229.191 39.7897 228.792 40.4547C228.393 41.1007 228.174 42.1932 228.136 43.7322H231.015C231.319 43.7322 231.518 43.6277 231.613 43.4187C231.708 43.2097 231.756 42.8867 231.756 42.4497C231.756 41.3287 231.623 40.5497 231.357 40.1127C231.091 39.6757 230.73 39.4572 230.274 39.4572ZM270.698 33.0447C270.983 33.5387 271.125 34.1372 271.125 34.8402C270.46 34.8402 269.938 34.9447 269.558 35.1537C269.197 35.3437 268.95 35.6857 268.817 36.1797L265.226 49.2327C264.846 50.5817 264.361 51.5697 263.772 52.1967C263.202 52.8237 262.452 53.1372 261.521 53.1372H259.925L257.303 43.9602L256.191 39.7707L255.279 43.9887L253.826 49.2327C253.446 50.6197 252.99 51.6172 252.458 52.2252C251.926 52.8332 251.194 53.1372 250.263 53.1372H248.724L243.68 36.1797C243.528 35.6667 243.319 35.3152 243.053 35.1252C242.787 34.9352 242.34 34.8402 241.713 34.8402C241.713 34.1182 241.856 33.5197 242.141 33.0447H249.836C250.159 33.6907 250.32 34.2892 250.32 34.8402C249.655 34.8402 249.199 34.9542 248.952 35.1822C248.705 35.4102 248.582 35.7142 248.582 36.0942L251.033 45.2997L251.489 47.6367L254.196 37.2342C254.348 36.4362 254.595 35.7712 254.937 35.2392C255.298 34.7072 255.754 34.4412 256.305 34.4412H259.298L262.119 45.2997L262.746 47.7507L263.402 45.2427L265.511 37.0347C265.568 36.8257 265.596 36.6357 265.596 36.4647C265.596 35.9707 265.416 35.5812 265.055 35.2962C264.694 34.9922 264.209 34.8402 263.601 34.8402C263.601 34.1182 263.734 33.5197 264 33.0447H270.698ZM277.983 50.0307C279.18 50.0307 280.291 49.6507 281.317 48.8907C281.469 49.0427 281.602 49.2707 281.716 49.5747C281.83 49.8787 281.887 50.1447 281.887 50.3727C281.887 50.7147 281.659 51.1137 281.203 51.5697C280.747 52.0067 280.111 52.3867 279.294 52.7097C278.496 53.0327 277.593 53.1942 276.586 53.1942C275.18 53.1942 273.945 52.8902 272.881 52.2822C271.836 51.6742 271.029 50.7907 270.459 49.6317C269.889 48.4727 269.604 47.1047 269.604 45.5277C269.604 43.9127 269.908 42.4972 270.516 41.2812C271.143 40.0652 271.998 39.1342 273.081 38.4882C274.164 37.8232 275.389 37.4907 276.757 37.4907C278.486 37.4907 279.864 37.9942 280.89 39.0012C281.916 40.0082 282.429 41.4047 282.429 43.1907C282.429 44.0267 282.296 44.6917 282.03 45.1857C281.764 45.6607 281.289 45.8982 280.605 45.8982H274.449C274.563 48.6532 275.741 50.0307 277.983 50.0307ZM276.586 39.4572C275.997 39.4572 275.503 39.7897 275.104 40.4547C274.705 41.1007 274.487 42.1932 274.449 43.7322H277.327C277.631 43.7322 277.831 43.6277 277.926 43.4187C278.021 43.2097 278.068 42.8867 278.068 42.4497C278.068 41.3287 277.935 40.5497 277.669 40.1127C277.403 39.6757 277.042 39.4572 276.586 39.4572ZM290.464 32.7882C290.464 33.6052 290.208 34.2607 289.695 34.7547C289.201 35.2297 288.536 35.4672 287.7 35.4672C286.883 35.4672 286.227 35.2297 285.733 34.7547C285.258 34.2607 285.021 33.6052 285.021 32.7882C285.021 31.9902 285.268 31.3442 285.762 30.8502C286.275 30.3562 286.94 30.1092 287.757 30.1092C288.574 30.1092 289.229 30.3562 289.723 30.8502C290.217 31.3442 290.464 31.9902 290.464 32.7882ZM289.923 49.8597C289.923 50.4107 290.056 50.8097 290.322 51.0567C290.607 51.2847 291.034 51.3987 291.604 51.3987C291.604 51.9877 291.386 52.5007 290.949 52.9377H284.508C284.071 52.5007 283.852 51.9877 283.852 51.3987C284.422 51.3987 284.831 51.2847 285.078 51.0567C285.344 50.8097 285.477 50.4012 285.477 49.8312V41.5662C285.477 41.0342 285.344 40.6542 285.078 40.4262C284.831 40.1982 284.337 40.0842 283.596 40.0842V38.8302C284.052 38.5452 284.821 38.2507 285.904 37.9467C287.006 37.6237 287.937 37.4622 288.697 37.4622C289.134 37.4622 289.448 37.5667 289.638 37.7757C289.828 37.9657 289.923 38.2982 289.923 38.7732V49.8597ZM307.893 52.2252C307.627 52.5672 307.228 52.8332 306.696 53.0232C306.164 53.2132 305.594 53.3082 304.986 53.3082C304.435 53.3082 303.893 53.1847 303.361 52.9377C302.829 52.7097 302.459 52.3867 302.25 51.9687C301.87 52.4627 301.395 52.8047 300.825 52.9947C300.274 53.2037 299.58 53.3082 298.744 53.3082C297.68 53.3082 296.702 53.0422 295.809 52.5102C294.916 51.9592 294.194 51.1517 293.643 50.0877C293.111 49.0047 292.845 47.6842 292.845 46.1262C292.845 44.2832 293.187 42.7157 293.871 41.4237C294.574 40.1317 295.495 39.1627 296.635 38.5167C297.775 37.8707 299.029 37.5477 300.397 37.5477C300.72 37.5477 301.3 37.5857 302.136 37.6617L302.05 35.9517V34.5267C302.05 34.0517 301.917 33.7002 301.651 33.4722C301.385 33.2442 300.882 33.1302 300.141 33.1302V31.9617C300.806 31.6007 301.67 31.2777 302.734 30.9927C303.798 30.7077 304.634 30.5652 305.242 30.5652C305.679 30.5652 305.993 30.6697 306.183 30.8787C306.392 31.0687 306.496 31.4012 306.496 31.8762V49.7742C306.496 50.7052 306.952 51.2562 307.864 51.4272L307.893 52.2252ZM300.711 50.8857C301.3 50.8857 301.746 50.7147 302.05 50.3727V40.3977C301.651 39.8467 301.119 39.5712 300.454 39.5712C299.618 39.5712 298.944 40.0082 298.431 40.8822C297.937 41.7562 297.69 43.1717 297.69 45.1287C297.69 47.0097 297.965 48.4442 298.516 49.4322C299.086 50.4012 299.818 50.8857 300.711 50.8857ZM316.753 50.0307C317.95 50.0307 319.061 49.6507 320.087 48.8907C320.239 49.0427 320.372 49.2707 320.486 49.5747C320.6 49.8787 320.657 50.1447 320.657 50.3727C320.657 50.7147 320.429 51.1137 319.973 51.5697C319.517 52.0067 318.881 52.3867 318.064 52.7097C317.266 53.0327 316.363 53.1942 315.356 53.1942C313.95 53.1942 312.715 52.8902 311.651 52.2822C310.606 51.6742 309.799 50.7907 309.229 49.6317C308.659 48.4727 308.374 47.1047 308.374 45.5277C308.374 43.9127 308.678 42.4972 309.286 41.2812C309.913 40.0652 310.768 39.1342 311.851 38.4882C312.934 37.8232 314.159 37.4907 315.527 37.4907C317.256 37.4907 318.634 37.9942 319.66 39.0012C320.686 40.0082 321.199 41.4047 321.199 43.1907C321.199 44.0267 321.066 44.6917 320.8 45.1857C320.534 45.6607 320.059 45.8982 319.375 45.8982H313.219C313.333 48.6532 314.511 50.0307 316.753 50.0307ZM315.356 39.4572C314.767 39.4572 314.273 39.7897 313.874 40.4547C313.475 41.1007 313.257 42.1932 313.219 43.7322H316.097C316.401 43.7322 316.601 43.6277 316.696 43.4187C316.791 43.2097 316.838 42.8867 316.838 42.4497C316.838 41.3287 316.705 40.5497 316.439 40.1127C316.173 39.6757 315.812 39.4572 315.356 39.4572Z" fill="black"/>
<path d="M105.238 71.725H328.725C328.856 71.725 328.963 71.6187 328.963 71.4875V66.2529C328.963 66.2107 328.951 66.1692 328.93 66.1327L326.838 62.5665C326.742 62.4027 326.502 62.4123 326.419 62.5831L324.624 66.2883C324.533 66.4748 324.264 66.4642 324.189 66.2713L322.245 61.3003C322.168 61.1037 321.892 61.0976 321.806 61.2907L318.925 67.7957C318.84 67.9875 318.567 67.983 318.488 67.7884L316.477 62.8079C316.393 62.6001 316.094 62.6135 316.029 62.828L314.559 67.6834C314.495 67.8957 314.2 67.9118 314.113 67.7077L311.408 61.3632C311.321 61.16 311.028 61.1748 310.962 61.3857L308.955 67.8276C308.895 68.0194 308.639 68.055 308.529 67.8869L305.515 63.273C305.429 63.1404 305.239 63.1281 305.136 63.2484L301.818 67.1227C301.69 67.2715 301.448 67.2108 301.406 67.0195L300.234 61.7193C300.18 61.4765 299.837 61.469 299.773 61.7092L298.445 66.6715C298.427 66.7387 298.38 66.7946 298.318 66.8245L295.445 68.1925C295.316 68.2541 295.162 68.188 295.117 68.0517L293.184 62.1166C293.114 61.9035 292.816 61.8963 292.736 62.1058L290.549 67.8591C290.479 68.043 290.229 68.067 290.125 67.8996L285.383 60.2312C285.269 60.0467 284.988 60.0992 284.948 60.3125L283.496 68.0769C283.472 68.2052 283.349 68.2901 283.221 68.267L279.054 67.5161C278.949 67.4973 278.87 67.4109 278.86 67.305L278.208 60.4695C278.185 60.2374 277.877 60.1728 277.764 60.3765L274.093 66.9706C273.989 67.1572 273.71 67.1225 273.656 66.9161L271.71 59.5989C271.645 59.3581 271.301 59.3659 271.248 59.6095L269.49 67.686C269.443 67.9009 269.155 67.9423 269.05 67.7492L266.335 62.7694C266.228 62.5732 265.934 62.6198 265.893 62.8395L265.136 66.8972C265.096 67.1084 264.819 67.1629 264.703 66.9823L261.023 61.2732C260.906 61.0924 260.628 61.1473 260.589 61.3589L259.597 66.747C259.555 66.975 259.245 67.0139 259.148 66.8033L256.641 61.3596C256.549 61.1585 256.255 61.1823 256.197 61.3957L254.696 66.8278C254.636 67.0446 254.336 67.0644 254.248 66.8574L250.316 57.5964C250.229 57.3928 249.936 57.4076 249.87 57.6188L247.566 65.0395C247.517 65.197 247.327 65.258 247.195 65.158L244.587 63.1707C244.474 63.0842 244.31 63.1166 244.238 63.2399L242.676 65.9182C242.597 66.0539 242.41 66.0767 242.301 65.964L238.165 61.7048C238.054 61.5908 237.865 61.6155 237.787 61.754L234.273 68.0177C234.193 68.1601 233.996 68.1813 233.888 68.0591L228.29 61.747C228.176 61.6191 227.969 61.6493 227.897 61.8042L224.813 68.412C224.726 68.5988 224.459 68.5935 224.379 68.4036L222.36 63.5944C222.275 63.3917 221.984 63.4035 221.915 63.6123L221.04 66.2799C220.976 66.4738 220.714 66.5025 220.61 66.3269L218.371 62.5463C218.277 62.387 218.045 62.3921 217.957 62.5554L215.017 68.0609C214.9 68.2789 214.57 68.1962 214.57 67.949V64.8069C214.57 64.5463 214.211 64.4759 214.112 64.7171L212.233 69.3193C212.148 69.5284 211.847 69.5115 211.785 69.2941L209.602 61.5691C209.537 61.3393 209.211 61.3383 209.145 61.5678L207.159 68.4388C207.104 68.6273 206.858 68.6722 206.74 68.515L203.292 63.8958C203.188 63.7565 202.974 63.7724 202.892 63.9256L200.441 68.4939C200.35 68.6636 200.105 68.66 200.019 68.4878L196.715 61.8771C196.629 61.7067 196.388 61.7009 196.295 61.8671L192.902 67.9143C192.808 68.0812 192.566 68.0744 192.481 67.9025L190.313 63.4771C190.224 63.294 189.96 63.3016 189.881 63.4896L187.798 68.4514C187.721 68.6334 187.469 68.6481 187.372 68.4763L182.742 60.2868C182.633 60.0927 182.34 60.1431 182.302 60.3627L180.929 68.211C180.89 68.4343 180.59 68.4811 180.484 68.2804L177.888 63.3343C177.808 63.1814 177.596 63.1626 177.49 63.2989L175.288 66.1311C175.259 66.1684 175.219 66.1963 175.174 66.211L171.495 67.4157C171.377 67.4544 171.249 67.3956 171.202 67.281L169.551 63.2973C169.491 63.152 169.308 63.1043 169.185 63.2016L163.904 67.357C163.811 67.43 163.679 67.4237 163.593 67.3423L159.9 63.8247C159.783 63.7127 159.59 63.7491 159.521 63.8963L157.345 68.5602C157.272 68.7176 157.06 68.7455 156.948 68.6125L152.555 63.3817C152.428 63.23 152.182 63.2917 152.141 63.4856L151.221 67.8645C151.182 68.0521 150.948 68.1182 150.816 67.9788L146.944 63.8804C146.822 63.751 146.606 63.7971 146.547 63.965L145.063 68.2075C144.987 68.4247 144.677 68.4177 144.611 68.1973L142.778 62.0861C142.715 61.8756 142.424 61.8564 142.334 62.0569L139.625 68.0782C139.525 68.3006 139.195 68.2458 139.172 68.0031L138.506 60.9329C138.481 60.6727 138.116 60.6372 138.041 60.8877L135.853 68.277C135.791 68.489 135.498 68.5077 135.408 68.3054L133.256 63.4245C133.179 63.2488 132.936 63.2329 132.836 63.397L130.572 67.122C130.476 67.2805 130.243 67.2723 130.158 67.1073L127.429 61.8051C127.35 61.6513 127.139 61.6309 127.032 61.7668L123.72 65.9722C123.631 66.0861 123.461 66.0938 123.361 65.9884L119.448 61.8464C119.309 61.6998 119.063 61.7816 119.039 61.982L118.548 66.1889C118.524 66.4017 118.252 66.4755 118.123 66.3045L115.879 63.3304C115.77 63.1858 115.545 63.2117 115.472 63.3774L113.876 66.9873C113.793 67.1768 113.523 67.1757 113.441 66.9855L111.345 62.1352C111.254 61.9252 110.948 61.9524 110.895 62.1751L109.582 67.7568C109.534 67.9619 109.262 68.0072 109.15 67.829L106.769 64.0498C106.66 63.8755 106.395 63.914 106.34 64.1123L105.009 68.8664C105.003 68.8872 105 68.9088 105 68.9304V71.4875C105 71.6187 105.106 71.725 105.238 71.725Z" fill="#55BA55"/>
</svg>
