<svg width="1440" height="1024" viewBox="0 0 1440 1024" fill="none" xmlns="http://www.w3.org/2000/svg">
<rect width="1440" height="1024" fill="#0D065B"/>
<path d="M286.502 73.9671L282.952 77.5085V88.9053H272.572V41H282.952V55.9382C282.952 58.4708 282.908 60.6601 282.818 62.5059C282.774 64.3517 282.707 65.8326 282.618 66.9487L294.338 54.6504H306.527L293.802 67.3351L308 88.9053H295.811L286.502 73.9671Z" fill="#FFFFE6"/>
<path d="M245.166 89.9999C242.308 89.9999 239.719 89.5492 237.397 88.6477C235.075 87.7034 233.089 86.4156 231.437 84.7844C229.785 83.1532 228.512 81.243 227.619 79.0538C226.726 76.8216 226.28 74.4178 226.28 71.8422C226.28 69.2667 226.726 66.8843 227.619 64.6951C228.512 62.4629 229.785 60.5313 231.437 58.9001C233.089 57.2689 235.075 56.0026 237.397 55.1011C239.719 54.1568 242.308 53.6846 245.166 53.6846C247.979 53.6846 250.546 54.1568 252.868 55.1011C255.189 56.0026 257.154 57.2689 258.761 58.9001C260.413 60.5313 261.686 62.4629 262.579 64.6951C263.472 66.8843 263.918 69.2667 263.918 71.8422C263.918 74.4178 263.472 76.8216 262.579 79.0538C261.686 81.243 260.413 83.1532 258.761 84.7844C257.154 86.4156 255.189 87.7034 252.868 88.6477C250.546 89.5492 247.979 89.9999 245.166 89.9999ZM245.099 82.6596C247.733 82.6596 249.742 81.6723 251.126 79.6977C252.555 77.6802 253.27 75.0617 253.27 71.8422C253.27 68.5799 252.555 65.9399 251.126 63.9224C249.742 61.9049 247.733 60.8961 245.099 60.8961C242.42 60.8961 240.389 61.9049 239.004 63.9224C237.62 65.9399 236.928 68.5799 236.928 71.8422C236.928 75.0617 237.62 77.6802 239.004 79.6977C240.389 81.6723 242.42 82.6596 245.099 82.6596Z" fill="#FFFFE6"/>
<path d="M196.499 54.6502H201.857V43.7041H212.17V54.6502H219.136V61.0891H212.17V78.0878C212.17 79.3755 212.505 80.2555 213.175 80.7277C213.889 81.157 214.872 81.3716 216.122 81.3716C216.479 81.3716 216.881 81.3716 217.327 81.3716C217.774 81.3287 218.176 81.2857 218.533 81.2428H219.069V88.7763C218.488 88.8622 217.685 88.9695 216.658 89.0983C215.631 89.227 214.403 89.2914 212.974 89.2914C211.322 89.2914 209.804 89.1627 208.42 88.9051C207.081 88.6046 205.92 88.111 204.938 87.4242C203.955 86.6944 203.196 85.7715 202.66 84.6554C202.125 83.4964 201.857 82.037 201.857 80.277V61.0891H196.499V54.6502Z" fill="#FFFFE6"/>
<path d="M165.977 54.1997C165.977 54.2856 165.977 54.5002 165.977 54.8436C165.977 55.187 165.977 55.6163 165.977 56.1314C165.977 56.6465 165.954 57.2045 165.91 57.8055C165.91 58.4065 165.91 58.986 165.91 59.544H166.11C167.182 57.6982 168.611 56.2602 170.397 55.2299C172.183 54.1997 174.326 53.6846 176.826 53.6846C180.755 53.6846 183.791 54.8436 185.934 57.1616C188.122 59.4367 189.216 62.5059 189.216 66.3692V88.9053H178.768V68.3009C178.768 66.4121 178.255 64.9097 177.228 63.7937C176.246 62.6347 174.772 62.0552 172.808 62.0552C170.754 62.0552 169.102 62.7634 167.852 64.18C166.602 65.5966 165.977 67.3994 165.977 69.5887V88.9053H155.462V41H165.977V54.1997Z" fill="#FFFFE6"/>
<path d="M130.539 89.9999C127.681 89.9999 125.092 89.5492 122.77 88.6477C120.493 87.7034 118.528 86.4156 116.876 84.7844C115.269 83.1532 114.019 81.243 113.126 79.0538C112.233 76.8216 111.787 74.4178 111.787 71.8422C111.787 69.2667 112.211 66.8843 113.059 64.6951C113.952 62.4629 115.202 60.5313 116.81 58.9001C118.417 57.2689 120.359 56.0026 122.636 55.1011C124.913 54.1568 127.458 53.6846 130.271 53.6846C132.637 53.6846 134.78 54.0065 136.7 54.6504C138.62 55.2514 140.272 56.1099 141.656 57.226C143.085 58.342 144.246 59.6942 145.139 61.2825C146.032 62.8278 146.634 64.5234 146.947 66.3692H136.767C136.41 64.7809 135.696 63.5361 134.624 62.6346C133.553 61.6903 132.146 61.2181 130.405 61.2181C127.726 61.2181 125.717 62.1839 124.377 64.1156C123.083 66.0472 122.435 68.6228 122.435 71.8422C122.435 74.9758 123.083 77.5085 124.377 79.4401C125.717 81.3718 127.726 82.3376 130.405 82.3376C132.369 82.3376 133.91 81.8011 135.026 80.7279C136.187 79.6548 136.879 78.1309 137.102 76.1563H147.215C147.126 78.088 146.657 79.9123 145.808 81.6293C145.005 83.3035 143.889 84.7629 142.46 86.0078C141.031 87.2526 139.29 88.2185 137.236 88.9053C135.227 89.635 132.994 89.9999 130.539 89.9999Z" fill="#FFFFE6"/>
<path d="M43 54.6502H48.3578V43.7041H58.6714V54.6502H65.6365V61.0891H58.6714V78.0878C58.6714 79.3755 59.0063 80.2555 59.676 80.7277C60.3904 81.157 61.3726 81.3716 62.6228 81.3716C62.98 81.3716 63.3818 81.3716 63.8283 81.3716C64.2748 81.3287 64.6766 81.2857 65.0338 81.2428H65.5696V88.7763C64.9891 88.8622 64.1855 88.9695 63.1586 89.0983C62.1317 89.227 60.9038 89.2914 59.4751 89.2914C57.8231 89.2914 56.3051 89.1627 54.921 88.9051C53.5816 88.6046 52.4207 88.111 51.4385 87.4242C50.4562 86.6944 49.6972 85.7715 49.1614 84.6554C48.6256 83.4964 48.3578 82.037 48.3578 80.277V61.0891H43V54.6502Z" fill="#FFFFE6"/>
<path d="M79.8549 59.313C79.8322 59.3228 79.8001 59.3378 79.759 59.3594C79.612 59.4367 79.4455 59.548 79.3042 59.6598C78.6618 60.1683 78.0674 60.7719 77.3583 61.5117C76.8876 62.0028 76.0064 62.9893 75.7919 63.3149C75.0507 64.4397 73.4581 64.799 72.2349 64.1174C71.0116 63.4359 70.6209 61.9715 71.3621 60.8468C71.8554 60.0981 73.0532 58.8002 73.4725 58.3626C74.1687 57.6363 74.9781 56.7998 75.9253 56.0502C76.2651 55.7812 76.7002 55.4814 77.188 55.2249C77.6446 54.9848 78.3201 54.6902 79.1079 54.5989C80.3163 54.4588 81.9714 54.3498 83.6719 54.983C83.6865 54.9872 83.7032 54.9917 83.7368 55.0009L83.7393 55.0016C83.7684 55.0096 83.8129 55.0218 83.8599 55.0352C84.0544 55.0909 84.4351 55.2063 84.844 55.4462C85.5347 55.8515 86.1047 56.3873 86.5224 56.8824C86.6514 57.0354 86.7783 57.1665 86.9625 57.3567L86.9629 57.3572C87.0277 57.424 87.0995 57.4982 87.1809 57.5831C87.3933 57.8047 87.5777 58.0382 87.6828 58.1713L87.6828 58.1713L87.7145 58.2114C87.84 58.3695 87.877 58.4091 87.8933 58.4248C88.1131 58.6371 88.3086 58.865 88.4449 59.0293C88.826 58.6105 89.0807 58.3237 89.2942 57.9975L89.3071 57.9764L89.3071 57.9764C89.3757 57.8637 89.6977 57.3342 89.9954 56.9748C90.3025 56.604 91.2104 55.598 92.7776 55.5624C92.8801 55.5601 92.9826 55.554 93.149 55.544L93.2101 55.5403C93.3901 55.5296 93.6424 55.5151 93.9138 55.5151C95.0058 55.5151 95.764 55.9965 96.1397 56.2804C96.3148 56.4127 96.4654 56.548 96.5414 56.6163L96.5414 56.6163L96.5509 56.6248C96.6464 56.7105 96.6594 56.7212 96.6594 56.7212C97.0637 57.0358 97.3659 57.372 97.5625 57.599C97.6593 57.7107 97.727 57.7908 97.781 57.8547L97.781 57.8548C97.8649 57.9541 97.9158 58.0143 97.9915 58.0933C98.1727 58.2824 98.4075 58.4424 98.9693 58.7998C99.2642 58.9874 99.5292 59.139 99.7611 59.2422C99.9161 59.3112 100 59.3329 100.022 59.3386L100.024 59.3392C100.063 59.3409 100.097 59.3422 100.128 59.3431C100.155 59.3077 100.184 59.2663 100.217 59.2182C100.355 59.0149 100.476 58.8004 100.648 58.4926L100.648 58.4925L100.754 58.3043C100.935 57.9813 101.185 57.5959 101.389 57.2791L101.39 57.2783C101.431 57.2144 101.471 57.1534 101.507 57.0962C101.77 56.6884 101.938 56.4109 102.021 56.2369C102.598 55.0334 104.126 54.4877 105.435 55.0181C106.744 55.5484 107.338 56.954 106.761 58.1575C106.534 58.6302 106.208 59.1431 105.967 59.5193C105.91 59.6066 105.858 59.6883 105.808 59.765L105.808 59.7655C105.607 60.0775 105.459 60.3065 105.354 60.4927C105.327 60.5414 105.296 60.5977 105.261 60.6604L105.261 60.6613C104.93 61.2669 104.272 62.4694 103.165 63.2655C101.871 64.1969 100.359 64.1244 99.8048 64.0979L99.7416 64.0949C98.8483 64.0553 98.0661 63.7791 97.5044 63.5291C96.9224 63.27 96.4057 62.9604 96.0224 62.7165L95.9389 62.6635C95.4686 62.3654 94.7385 61.9026 94.1057 61.2424C93.9693 61.1 93.8495 60.9629 93.7542 60.8516C93.6987 60.7868 93.6614 60.7427 93.6287 60.704L93.5919 60.6605C93.1649 61.2716 92.6768 61.804 92.3105 62.2035C92.2567 62.2622 92.2055 62.318 92.1576 62.3707C92.1276 62.4037 92.1076 62.4269 92.0739 62.4661L92.0736 62.4664C92.0522 62.4913 92.0252 62.5227 91.9866 62.567C91.9092 62.656 91.7834 62.7987 91.6285 62.9469C91.2933 63.2675 90.7702 63.6651 89.9994 63.8779C89.0432 64.142 88.0628 63.9974 87.6698 63.9278L87.6299 63.9208C87.278 63.8598 86.1397 63.6622 85.2648 62.9185C84.8898 62.5997 84.6092 62.2604 84.4506 62.0684L84.4416 62.0576L84.4415 62.0575C84.2509 61.8268 84.1984 61.7634 84.1416 61.7085C83.8687 61.4448 83.6561 61.177 83.5337 61.0228L83.5309 61.0193C83.3802 60.8294 83.3373 60.7762 83.2952 60.7322C83.2573 60.6927 83.2137 60.6478 83.1659 60.5985L83.1658 60.5985L83.1658 60.5984C82.961 60.3875 82.678 60.0958 82.4295 59.8013C82.3341 59.6881 82.2408 59.6003 82.1674 59.5403L82.138 59.532C82.0418 59.5046 81.8982 59.4617 81.7352 59.4002C81.327 59.2462 80.8016 59.2095 79.8549 59.313Z" fill="#AA8DFF"/>
<path fill-rule="evenodd" clip-rule="evenodd" d="M94.5636 72.0168C93.5953 72.0281 93.2354 72.1516 92.9971 72.3403C92.3524 72.851 91.8609 73.2737 91.42 73.7696L91.4096 73.7813C90.9469 74.3016 90.1241 75.227 88.9709 75.8106C88.1633 76.2193 87.2637 76.3627 86.4625 76.3348C85.7171 76.3089 84.8639 76.1273 84.1011 75.6798C84.0953 75.6779 84.0891 75.6759 84.0824 75.6738C84.0778 75.6724 84.0729 75.6708 84.0675 75.6691C83.9857 75.6433 83.818 75.5903 83.6427 75.5219C83.4443 75.4443 83.1861 75.3287 82.9151 75.1541C82.477 74.872 81.9669 74.5325 81.4627 74.115C80.8715 73.6254 80.2105 73.1639 79.4791 72.669C79.4701 72.6682 79.46 72.6675 79.4489 72.6668C79.2801 72.6559 79.0464 72.6688 78.706 72.7097C78.6712 72.7246 78.6138 72.752 78.534 72.7981C78.3349 72.9129 78.107 73.0783 77.8632 73.2757C77.4024 73.6489 76.9612 74.0553 76.5955 74.4591C76.5736 74.4833 76.5537 74.5076 76.4915 74.5835C76.479 74.5987 76.4648 74.616 76.4486 74.6358C76.3853 74.713 76.2799 74.8412 76.1502 74.979C76.1268 75.0109 76.0977 75.0529 76.07 75.0959C75.7637 76.0672 74.7634 76.7793 73.5766 76.7793C72.1463 76.7793 70.9868 75.7449 70.9868 74.469C70.9868 73.9172 71.2085 73.4626 71.2604 73.3561C71.2625 73.3517 71.2644 73.3479 71.2659 73.3448C71.3581 73.1533 71.464 72.9751 71.5512 72.8374C71.6903 72.6178 71.9373 72.2569 72.1888 72.0023C72.188 72.0031 72.1876 72.0035 72.1876 72.0035C72.1875 72.0035 72.2061 71.9834 72.2686 71.9073C72.2751 71.8993 72.2828 71.8898 72.2917 71.879C72.3504 71.807 72.4569 71.6764 72.5665 71.5554C73.1315 70.9316 73.7654 70.3537 74.3819 69.8545C74.7182 69.5822 75.1828 69.2289 75.7207 68.9186C76.2307 68.6243 76.9895 68.26 77.9012 68.1446C78.3653 68.0859 79.069 68.0099 79.8213 68.0583C80.5773 68.1069 81.5787 68.2923 82.4884 68.906C83.2697 69.4332 84.1549 70.0399 84.9867 70.7287C85.2186 70.9207 85.4787 71.1028 85.8064 71.3168C85.8091 71.3177 85.8118 71.3185 85.8146 71.3194C85.8192 71.3209 85.8242 71.3225 85.8296 71.3242C85.9112 71.3499 86.0794 71.403 86.2547 71.4717C86.3648 71.5147 86.4939 71.5698 86.6335 71.6406C86.7966 71.505 87.0242 71.2781 87.3619 70.8982C88.0844 70.0857 88.8416 69.4528 89.558 68.8854C91.4414 67.3935 93.7263 67.3765 95.0688 67.3985C96.9304 67.4292 98.1327 68.5249 98.731 69.2726C98.7404 69.2815 98.7725 69.3117 98.8469 69.3742C98.8575 69.3832 98.8753 69.398 98.8972 69.4163C98.9544 69.4639 99.0398 69.5351 99.1008 69.5875C99.2058 69.6775 99.3382 69.7949 99.4761 69.9346C99.7704 70.2325 100.046 70.5458 100.269 70.7993C100.293 70.8275 100.318 70.8549 100.341 70.8815C100.475 71.0334 100.592 71.1653 100.702 71.2832C100.749 71.2843 100.802 71.2851 100.862 71.2856C100.894 71.2859 100.924 71.2861 100.958 71.2863L100.982 71.2865C101.023 71.2868 101.07 71.2871 101.116 71.2876C101.207 71.2887 101.29 71.2916 101.354 71.2942C101.362 71.2945 101.369 71.2949 101.376 71.2952C101.529 71.2267 101.658 71.1756 101.738 71.1441C101.751 71.1389 101.763 71.1342 101.773 71.1301C101.778 71.1284 101.782 71.1266 101.786 71.125C101.812 71.097 101.841 71.0651 101.873 71.0295C101.951 70.9428 102.028 70.8514 102.095 70.7702C102.128 70.73 102.156 70.6949 102.178 70.6666C102.189 70.6526 102.197 70.6412 102.204 70.6326L102.211 70.6226C102.212 70.6212 102.213 70.6202 102.213 70.6197L102.214 70.6191C102.988 69.5464 104.591 69.2369 105.794 69.9278C106.996 70.6187 107.343 72.0483 106.568 73.121C106.415 73.3329 106.165 73.6391 105.923 73.9099C105.798 74.0499 105.651 74.2074 105.499 74.3549C105.386 74.4641 105.13 74.7089 104.799 74.9094C104.436 75.13 104.078 75.2725 103.907 75.3404C103.899 75.3434 103.892 75.3462 103.886 75.3488C103.751 75.4023 103.705 75.4222 103.697 75.4256C102.957 75.8435 102.217 75.9107 101.798 75.9229C101.581 75.9292 101.386 75.9216 101.269 75.9165C101.221 75.9145 101.185 75.9129 101.157 75.9116C101.098 75.909 101.077 75.908 101.05 75.9077C101.026 75.9074 100.995 75.9073 100.959 75.9072C100.699 75.9065 100.143 75.9049 99.6135 75.8271C98.9774 75.7337 97.9895 75.4857 97.1898 74.7178C96.8337 74.3759 96.5193 74.0213 96.268 73.7359C96.2462 73.7112 96.2248 73.6869 96.204 73.6632C95.9643 73.3909 95.781 73.1826 95.5903 72.9896C95.5605 72.9595 95.538 72.9407 95.4469 72.8645C95.4091 72.833 95.3596 72.7916 95.293 72.7355C95.1232 72.5927 94.8361 72.3473 94.5636 72.0168ZM100.448 71.2669C100.448 71.2668 100.449 71.267 100.451 71.2674C100.449 71.2671 100.448 71.2669 100.448 71.2669ZM78.7365 72.6979C78.7365 72.6979 78.7356 72.6982 78.7339 72.6987C78.7356 72.6981 78.7365 72.6978 78.7365 72.6979ZM79.5443 72.6778C79.5442 72.6778 79.5425 72.6775 79.5392 72.6766C79.5427 72.6773 79.5443 72.6777 79.5443 72.6778Z" fill="#8CFFCF"/>
<path fill-rule="evenodd" clip-rule="evenodd" d="M94.0117 84.8392C93.8636 85.0499 93.6915 85.2933 93.5113 85.5298C93.457 85.6011 93.3928 85.6895 93.3191 85.7911C92.8903 86.3817 92.1387 87.4171 91.1279 88.1145C90.1922 88.7602 88.7967 89.4298 87.3672 89.6151L87.3644 89.6155C87.2419 89.6314 86.9467 89.6696 86.6207 89.6798L86.6133 89.68C86.4014 89.6867 85.6578 89.7101 84.923 89.3907C84.4297 89.1762 84.0332 88.8934 83.842 88.757C83.8364 88.753 83.8309 88.749 83.8256 88.7453C83.7981 88.7257 83.7739 88.7084 83.7522 88.6929C83.6772 88.6393 83.6317 88.6068 83.5822 88.5735C83.5483 88.5506 83.5308 88.54 83.5264 88.5374C82.7164 88.1161 81.8869 87.5117 81.2452 86.7677C81.1023 86.6021 80.9681 86.4364 80.8564 86.2982L80.8365 86.2736C80.7269 86.138 80.638 86.028 80.5483 85.9222C80.3554 85.6948 80.2395 85.5853 80.1642 85.5279C80.0647 85.4521 79.987 85.3936 79.9142 85.3415C79.8849 85.3205 79.8588 85.3024 79.8356 85.2867L79.8231 85.2871L79.8229 85.2872C79.7363 85.2904 79.5968 85.2958 79.449 85.2958C78.6532 85.2958 78.4844 85.3494 78.3684 85.4062C78.1362 85.5201 77.9627 85.6925 77.3077 86.3435C77.2901 86.361 77.2721 86.3788 77.2538 86.3971C76.9778 86.6712 76.7553 86.9445 76.6227 87.1687C76.5439 87.3019 76.4624 87.4131 76.4135 87.478C76.3591 87.5501 76.3043 87.6184 76.261 87.6717C76.2307 87.709 76.196 87.7512 76.1662 87.7874C76.1549 87.8011 76.1444 87.8139 76.135 87.8253C76.0961 87.8728 76.0637 87.9126 76.0347 87.9492C76.0327 87.9517 76.0308 87.9541 76.0289 87.9565C75.6585 88.9109 74.5884 89.5643 73.3871 89.487C71.9606 89.3952 70.8891 88.3081 70.9939 87.0588C71.021 86.7352 71.1148 86.4746 71.1825 86.315C71.2548 86.1447 71.3365 85.9998 71.4029 85.8917C71.533 85.6798 71.6784 85.4903 71.7789 85.3635C71.846 85.2787 71.9343 85.1713 71.9924 85.1006C72.0135 85.075 72.0306 85.0542 72.0413 85.041C72.0523 85.0275 72.0613 85.0163 72.0685 85.0072C72.4501 84.3818 72.934 83.8289 73.3679 83.3977C73.4149 83.351 73.4673 83.2977 73.5248 83.2392C73.9826 82.7734 74.7708 81.9715 75.8378 81.4482C77.2255 80.7678 78.6062 80.7595 79.449 80.7595C79.4707 80.7595 79.5066 80.7587 79.5982 80.7552C79.6059 80.7549 79.6141 80.7546 79.6229 80.7542C79.6999 80.7513 79.8191 80.7467 79.94 80.745C80.1992 80.7415 80.6664 80.7451 81.1847 80.8683C82.2975 81.1327 83.1459 81.7845 83.5079 82.0626C83.5283 82.0783 83.5472 82.0928 83.5645 82.106C84.0573 82.4816 84.4336 82.8957 84.7067 83.2177C84.8334 83.3671 84.9553 83.518 85.0574 83.6443C85.0664 83.6555 85.0753 83.6665 85.084 83.6772C85.1983 83.8186 85.2896 83.9309 85.3781 84.0334C85.5622 84.2468 85.8594 84.4753 86.1734 84.6382C86.4021 84.7569 86.5952 84.8802 86.7406 84.9781C86.7838 85.0072 86.8273 85.0372 86.8691 85.0664C87.1652 84.975 87.5713 84.7936 87.9222 84.5514C88.1855 84.3698 88.3642 84.1304 88.7698 83.5873C88.8911 83.4248 89.0327 83.2352 89.2029 83.0119C89.3403 82.8316 89.472 82.6442 89.6334 82.4148C89.6538 82.3857 89.6748 82.3559 89.6963 82.3254C89.8752 82.0712 90.0903 81.7681 90.3301 81.4681C90.6481 81.0701 91.2058 80.4466 92.0847 80.0584C93.1331 79.5953 94.2664 79.6193 95.2854 79.9947C96.5135 80.447 97.3068 81.1978 97.8248 81.7513C98.1047 82.0503 98.2829 82.2572 98.4261 82.4234C98.6167 82.6445 98.7452 82.7937 98.9687 82.9924C99.449 83.4194 100.143 83.7883 100.93 84.0565C100.993 84.0781 101.048 84.0962 101.096 84.1117C101.153 84.0626 101.223 83.9852 101.314 83.8582C101.399 83.7384 101.458 83.6439 101.543 83.5071C101.588 83.4347 101.64 83.3504 101.708 83.2442L101.713 83.2362C101.846 83.0269 102.141 82.5631 102.602 82.1771C103.637 81.3117 105.276 81.3444 106.264 82.2501C107.213 83.1199 107.216 84.4786 106.299 85.3514C106.284 85.3736 106.261 85.4066 106.232 85.4526C106.215 85.4793 106.192 85.5164 106.164 85.5614C106.057 85.7335 105.88 86.0198 105.701 86.2699C105.197 86.972 104.345 87.9059 102.832 88.4236C101.916 88.7819 101.034 88.7366 100.462 88.6501C99.8604 88.5591 99.3273 88.3778 99.0515 88.2838C97.7947 87.8554 96.4101 87.1817 95.2787 86.1758C94.9293 85.8651 94.6378 85.5484 94.4078 85.2897C94.3096 85.1793 94.2292 85.0873 94.157 85.0047C94.1054 84.9458 94.0581 84.8917 94.0117 84.8392ZM79.7043 85.2061C79.7043 85.2061 79.7051 85.2065 79.7068 85.2073C79.7052 85.2066 79.7043 85.2061 79.7043 85.2061Z" fill="#FCFF6C"/>
<rect x="115" y="168" width="1210" height="768" rx="13" fill="white"/>
<rect x="115" y="168" width="1210" height="768" rx="13" stroke="#FCFF6C" stroke-width="10"/>
<rect x="148" y="194" width="1144" height="716" rx="8" fill="white"/>
<rect x="168" y="214" width="1104" height="32.5" rx="6" fill="white"/>
<path d="M223.757 224.159V237.25H221.386V226.467H221.309L218.248 228.423V226.249L221.501 224.159H223.757ZM231.875 237.429C231.249 237.425 230.637 237.316 230.041 237.103C229.444 236.886 228.907 236.534 228.43 236.048C227.953 235.558 227.574 234.908 227.292 234.099C227.011 233.285 226.873 232.277 226.877 231.075C226.877 229.955 226.996 228.955 227.235 228.077C227.473 227.2 227.816 226.458 228.264 225.853C228.711 225.244 229.25 224.779 229.881 224.46C230.516 224.14 231.225 223.98 232.01 223.98C232.832 223.98 233.561 224.142 234.196 224.466C234.835 224.79 235.35 225.233 235.743 225.795C236.135 226.354 236.377 226.984 236.471 227.688H234.138C234.019 227.185 233.774 226.784 233.403 226.486C233.037 226.183 232.572 226.032 232.01 226.032C231.102 226.032 230.403 226.426 229.913 227.214C229.427 228.003 229.182 229.085 229.178 230.462H229.267C229.476 230.087 229.747 229.765 230.079 229.496C230.412 229.228 230.787 229.021 231.204 228.876C231.626 228.727 232.071 228.653 232.54 228.653C233.307 228.653 233.995 228.836 234.605 229.202C235.218 229.569 235.704 230.074 236.062 230.717C236.42 231.357 236.597 232.089 236.593 232.916C236.597 233.777 236.401 234.55 236.005 235.237C235.608 235.918 235.056 236.455 234.349 236.847C233.642 237.239 232.817 237.433 231.875 237.429ZM231.863 235.511C232.327 235.511 232.743 235.398 233.109 235.173C233.475 234.947 233.765 234.642 233.978 234.259C234.191 233.875 234.296 233.445 234.292 232.967C234.296 232.499 234.194 232.075 233.985 231.695C233.78 231.316 233.497 231.016 233.135 230.794C232.772 230.572 232.359 230.462 231.895 230.462C231.549 230.462 231.228 230.528 230.929 230.66C230.631 230.792 230.371 230.975 230.15 231.21C229.928 231.44 229.753 231.708 229.625 232.015C229.502 232.317 229.438 232.641 229.434 232.987C229.438 233.442 229.544 233.862 229.753 234.246C229.962 234.629 230.25 234.936 230.616 235.166C230.983 235.396 231.398 235.511 231.863 235.511ZM244.123 223.545L239.904 239.219H237.877L242.096 223.545H244.123ZM250.898 224.159V237.25H248.527V226.467H248.45L245.388 228.423V226.249L248.642 224.159H250.898ZM259.016 237.429C258.39 237.425 257.778 237.316 257.181 237.103C256.585 236.886 256.048 236.534 255.571 236.048C255.093 235.558 254.714 234.908 254.433 234.099C254.152 233.285 254.013 232.277 254.017 231.075C254.017 229.955 254.137 228.955 254.375 228.077C254.614 227.2 254.957 226.458 255.404 225.853C255.852 225.244 256.391 224.779 257.022 224.46C257.657 224.14 258.366 223.98 259.15 223.98C259.973 223.98 260.701 224.142 261.336 224.466C261.975 224.79 262.491 225.233 262.883 225.795C263.275 226.354 263.518 226.984 263.612 227.688H261.279C261.159 227.185 260.914 226.784 260.544 226.486C260.177 226.183 259.713 226.032 259.15 226.032C258.243 226.032 257.544 226.426 257.054 227.214C256.568 228.003 256.323 229.085 256.319 230.462H256.408C256.617 230.087 256.887 229.765 257.22 229.496C257.552 229.228 257.927 229.021 258.345 228.876C258.767 228.727 259.212 228.653 259.681 228.653C260.448 228.653 261.136 228.836 261.745 229.202C262.359 229.569 262.845 230.074 263.203 230.717C263.561 231.357 263.738 232.089 263.733 232.916C263.738 233.777 263.542 234.55 263.145 235.237C262.749 235.918 262.197 236.455 261.49 236.847C260.782 237.239 259.958 237.433 259.016 237.429ZM259.003 235.511C259.468 235.511 259.883 235.398 260.25 235.173C260.616 234.947 260.906 234.642 261.119 234.259C261.332 233.875 261.436 233.445 261.432 232.967C261.436 232.499 261.334 232.075 261.125 231.695C260.921 231.316 260.637 231.016 260.275 230.794C259.913 230.572 259.5 230.462 259.035 230.462C258.69 230.462 258.368 230.528 258.07 230.66C257.772 230.792 257.512 230.975 257.29 231.21C257.069 231.44 256.894 231.708 256.766 232.015C256.642 232.317 256.578 232.641 256.574 232.987C256.578 233.442 256.685 233.862 256.894 234.246C257.103 234.629 257.39 234.936 257.757 235.166C258.123 235.396 258.539 235.511 259.003 235.511Z" fill="black"/>
<rect x="1058" y="215.25" width="166" height="30" rx="15" stroke="black" stroke-width="2"/>
<path d="M1079.26 237.25V224.159H1081.64V235.262H1087.4V237.25H1079.26ZM1093.7 237.442C1092.72 237.442 1091.87 237.237 1091.15 236.828C1090.44 236.415 1089.89 235.831 1089.51 235.077C1089.13 234.318 1088.94 233.425 1088.94 232.398C1088.94 231.388 1089.13 230.502 1089.51 229.739C1089.9 228.972 1090.44 228.376 1091.13 227.95C1091.83 227.519 1092.65 227.304 1093.58 227.304C1094.19 227.304 1094.76 227.402 1095.3 227.598C1095.84 227.79 1096.31 228.088 1096.73 228.493C1097.15 228.898 1097.47 229.413 1097.71 230.04C1097.95 230.662 1098.07 231.403 1098.07 232.264V232.974H1090.02V231.414H1095.85C1095.85 230.971 1095.75 230.577 1095.56 230.232C1095.38 229.882 1095.11 229.607 1094.78 229.407C1094.45 229.207 1094.06 229.107 1093.61 229.107C1093.14 229.107 1092.73 229.222 1092.37 229.452C1092.01 229.678 1091.73 229.976 1091.53 230.347C1091.34 230.713 1091.23 231.116 1091.23 231.555V232.916C1091.23 233.487 1091.34 233.977 1091.54 234.386C1091.75 234.791 1092.04 235.102 1092.42 235.32C1092.79 235.533 1093.23 235.639 1093.74 235.639C1094.07 235.639 1094.38 235.592 1094.65 235.499C1094.92 235.401 1095.16 235.258 1095.36 235.07C1095.56 234.883 1095.71 234.651 1095.81 234.374L1097.97 234.616C1097.84 235.187 1097.58 235.686 1097.19 236.112C1096.82 236.534 1096.33 236.862 1095.74 237.097C1095.14 237.327 1094.47 237.442 1093.7 237.442ZM1107.79 230.027L1105.68 230.257C1105.62 230.044 1105.51 229.844 1105.37 229.656C1105.22 229.469 1105.02 229.317 1104.78 229.202C1104.53 229.087 1104.23 229.03 1103.87 229.03C1103.39 229.03 1102.98 229.134 1102.65 229.343C1102.33 229.552 1102.17 229.822 1102.18 230.155C1102.17 230.44 1102.28 230.673 1102.49 230.852C1102.71 231.031 1103.06 231.178 1103.56 231.293L1105.24 231.651C1106.17 231.851 1106.86 232.168 1107.31 232.603C1107.76 233.038 1107.99 233.607 1108 234.31C1107.99 234.928 1107.81 235.473 1107.46 235.946C1107.1 236.415 1106.61 236.781 1105.98 237.045C1105.35 237.31 1104.62 237.442 1103.81 237.442C1102.6 237.442 1101.64 237.19 1100.9 236.688C1100.17 236.18 1099.73 235.475 1099.59 234.572L1101.85 234.354C1101.95 234.798 1102.17 235.132 1102.5 235.358C1102.83 235.584 1103.27 235.697 1103.8 235.697C1104.35 235.697 1104.79 235.584 1105.12 235.358C1105.46 235.132 1105.63 234.853 1105.63 234.521C1105.63 234.239 1105.52 234.007 1105.3 233.824C1105.09 233.641 1104.76 233.5 1104.3 233.402L1102.63 233.05C1101.69 232.854 1100.99 232.524 1100.54 232.06C1100.09 231.591 1099.86 230.999 1099.87 230.283C1099.86 229.678 1100.03 229.153 1100.36 228.71C1100.7 228.263 1101.16 227.918 1101.76 227.675C1102.36 227.428 1103.05 227.304 1103.84 227.304C1104.99 227.304 1105.89 227.549 1106.55 228.039C1107.22 228.529 1107.63 229.192 1107.79 230.027ZM1117.2 237.448C1116.57 237.448 1116.01 237.337 1115.52 237.116C1115.02 236.89 1114.63 236.558 1114.34 236.119C1114.05 235.68 1113.91 235.138 1113.91 234.495C1113.91 233.941 1114.01 233.483 1114.22 233.121C1114.42 232.759 1114.7 232.469 1115.06 232.251C1115.41 232.034 1115.81 231.87 1116.25 231.759C1116.7 231.644 1117.16 231.561 1117.64 231.51C1118.21 231.45 1118.68 231.397 1119.04 231.35C1119.4 231.299 1119.66 231.222 1119.82 231.12C1119.98 231.013 1120.07 230.849 1120.07 230.628V230.589C1120.07 230.108 1119.92 229.735 1119.64 229.471C1119.35 229.207 1118.94 229.075 1118.4 229.075C1117.84 229.075 1117.39 229.198 1117.06 229.445C1116.73 229.692 1116.51 229.984 1116.39 230.321L1114.23 230.014C1114.4 229.418 1114.68 228.919 1115.07 228.518C1115.47 228.114 1115.95 227.811 1116.51 227.611C1117.08 227.406 1117.71 227.304 1118.39 227.304C1118.87 227.304 1119.34 227.359 1119.8 227.47C1120.27 227.581 1120.7 227.764 1121.09 228.02C1121.48 228.271 1121.79 228.614 1122.02 229.049C1122.26 229.484 1122.38 230.027 1122.38 230.679V237.25H1120.16V235.901H1120.08C1119.94 236.174 1119.74 236.43 1119.49 236.668C1119.23 236.903 1118.92 237.092 1118.53 237.237C1118.15 237.378 1117.71 237.448 1117.2 237.448ZM1117.8 235.748C1118.26 235.748 1118.66 235.656 1119.01 235.473C1119.35 235.286 1119.61 235.038 1119.79 234.732C1119.98 234.425 1120.07 234.09 1120.07 233.728V232.571C1120 232.631 1119.88 232.686 1119.7 232.737C1119.53 232.788 1119.34 232.833 1119.13 232.871C1118.91 232.91 1118.7 232.944 1118.49 232.974C1118.29 233.004 1118.1 233.029 1117.95 233.05C1117.61 233.097 1117.3 233.174 1117.02 233.281C1116.75 233.387 1116.54 233.536 1116.38 233.728C1116.22 233.915 1116.14 234.158 1116.14 234.457C1116.14 234.883 1116.3 235.205 1116.61 235.422C1116.92 235.639 1117.32 235.748 1117.8 235.748ZM1129.68 227.432V229.222H1123.88V227.432H1129.68ZM1125.33 237.25V226.505C1125.33 225.844 1125.46 225.295 1125.74 224.856C1126.01 224.417 1126.38 224.089 1126.85 223.871C1127.31 223.654 1127.83 223.545 1128.4 223.545C1128.8 223.545 1129.15 223.577 1129.46 223.641C1129.77 223.705 1130 223.763 1130.15 223.814L1129.69 225.604C1129.6 225.574 1129.47 225.544 1129.32 225.514C1129.17 225.48 1129.01 225.463 1128.82 225.463C1128.39 225.463 1128.09 225.567 1127.91 225.776C1127.74 225.981 1127.65 226.275 1127.65 226.658V237.25H1125.33ZM1138.9 230.027L1136.79 230.257C1136.73 230.044 1136.63 229.844 1136.48 229.656C1136.33 229.469 1136.14 229.317 1135.89 229.202C1135.64 229.087 1135.34 229.03 1134.98 229.03C1134.5 229.03 1134.1 229.134 1133.77 229.343C1133.44 229.552 1133.28 229.822 1133.29 230.155C1133.28 230.44 1133.39 230.673 1133.6 230.852C1133.82 231.031 1134.18 231.178 1134.68 231.293L1136.35 231.651C1137.28 231.851 1137.97 232.168 1138.42 232.603C1138.88 233.038 1139.11 233.607 1139.11 234.31C1139.11 234.928 1138.93 235.473 1138.57 235.946C1138.21 236.415 1137.72 236.781 1137.09 237.045C1136.46 237.31 1135.74 237.442 1134.92 237.442C1133.72 237.442 1132.75 237.19 1132.02 236.688C1131.28 236.18 1130.85 235.475 1130.71 234.572L1132.96 234.354C1133.07 234.798 1133.28 235.132 1133.61 235.358C1133.95 235.584 1134.38 235.697 1134.91 235.697C1135.46 235.697 1135.9 235.584 1136.24 235.358C1136.57 235.132 1136.74 234.853 1136.74 234.521C1136.74 234.239 1136.63 234.007 1136.41 233.824C1136.2 233.641 1135.87 233.5 1135.42 233.402L1133.74 233.05C1132.8 232.854 1132.1 232.524 1131.65 232.06C1131.2 231.591 1130.98 230.999 1130.98 230.283C1130.98 229.678 1131.14 229.153 1131.47 228.71C1131.81 228.263 1132.28 227.918 1132.87 227.675C1133.47 227.428 1134.17 227.304 1134.95 227.304C1136.1 227.304 1137.01 227.549 1137.67 228.039C1138.33 228.529 1138.74 229.192 1138.9 230.027ZM1143.33 224.159V237.25H1141.02V224.159H1143.33ZM1151.97 233.121V227.432H1154.29V237.25H1152.04V235.505H1151.94C1151.72 236.055 1151.35 236.504 1150.85 236.854C1150.34 237.203 1149.72 237.378 1148.99 237.378C1148.34 237.378 1147.77 237.235 1147.28 236.95C1146.79 236.66 1146.41 236.24 1146.13 235.69C1145.85 235.136 1145.71 234.467 1145.71 233.683V227.432H1148.03V233.325C1148.03 233.947 1148.2 234.442 1148.54 234.808C1148.88 235.175 1149.33 235.358 1149.88 235.358C1150.22 235.358 1150.55 235.275 1150.87 235.109C1151.19 234.942 1151.45 234.695 1151.66 234.367C1151.87 234.035 1151.97 233.619 1151.97 233.121ZM1156.66 237.25V227.432H1158.98V237.25H1156.66ZM1157.83 226.038C1157.46 226.038 1157.15 225.917 1156.88 225.674C1156.62 225.427 1156.49 225.131 1156.49 224.786C1156.49 224.436 1156.62 224.14 1156.88 223.897C1157.15 223.65 1157.46 223.526 1157.83 223.526C1158.2 223.526 1158.51 223.65 1158.77 223.897C1159.04 224.14 1159.17 224.436 1159.17 224.786C1159.17 225.131 1159.04 225.427 1158.77 225.674C1158.51 225.917 1158.2 226.038 1157.83 226.038ZM1166.26 227.432V229.222H1160.62V227.432H1166.26ZM1162.01 225.08H1164.32V234.297C1164.32 234.608 1164.37 234.847 1164.46 235.013C1164.56 235.175 1164.69 235.286 1164.85 235.345C1165.01 235.405 1165.18 235.435 1165.37 235.435C1165.52 235.435 1165.65 235.424 1165.77 235.403C1165.89 235.381 1165.99 235.362 1166.05 235.345L1166.44 237.154C1166.32 237.197 1166.14 237.244 1165.91 237.295C1165.68 237.346 1165.41 237.376 1165.08 237.384C1164.5 237.401 1163.98 237.314 1163.51 237.122C1163.05 236.926 1162.68 236.624 1162.41 236.214C1162.14 235.805 1162.01 235.294 1162.01 234.68V225.08ZM1172.44 237.442C1171.45 237.442 1170.6 237.237 1169.89 236.828C1169.17 236.415 1168.63 235.831 1168.24 235.077C1167.86 234.318 1167.67 233.425 1167.67 232.398C1167.67 231.388 1167.86 230.502 1168.24 229.739C1168.63 228.972 1169.17 228.376 1169.87 227.95C1170.56 227.519 1171.38 227.304 1172.32 227.304C1172.92 227.304 1173.49 227.402 1174.03 227.598C1174.57 227.79 1175.05 228.088 1175.46 228.493C1175.88 228.898 1176.21 229.413 1176.44 230.04C1176.68 230.662 1176.8 231.403 1176.8 232.264V232.974H1168.76V231.414H1174.58C1174.58 230.971 1174.48 230.577 1174.3 230.232C1174.11 229.882 1173.85 229.607 1173.51 229.407C1173.18 229.207 1172.79 229.107 1172.35 229.107C1171.87 229.107 1171.46 229.222 1171.1 229.452C1170.74 229.678 1170.46 229.976 1170.26 230.347C1170.07 230.713 1169.97 231.116 1169.96 231.555V232.916C1169.96 233.487 1170.07 233.977 1170.28 234.386C1170.49 234.791 1170.78 235.102 1171.15 235.32C1171.53 235.533 1171.97 235.639 1172.47 235.639C1172.81 235.639 1173.11 235.592 1173.38 235.499C1173.66 235.401 1173.89 235.258 1174.09 235.07C1174.29 234.883 1174.44 234.651 1174.55 234.374L1176.71 234.616C1176.57 235.187 1176.31 235.686 1175.93 236.112C1175.55 236.534 1175.06 236.862 1174.47 237.097C1173.88 237.327 1173.2 237.442 1172.44 237.442ZM1181.07 231.497V237.25H1178.76V227.432H1180.97V229.1H1181.09C1181.31 228.55 1181.67 228.114 1182.17 227.79C1182.67 227.466 1183.28 227.304 1184.01 227.304C1184.69 227.304 1185.28 227.449 1185.79 227.739C1186.29 228.028 1186.68 228.448 1186.96 228.998C1187.24 229.548 1187.38 230.214 1187.38 230.999V237.25H1185.06V231.357C1185.06 230.7 1184.89 230.187 1184.55 229.816C1184.21 229.445 1183.75 229.26 1183.15 229.26C1182.75 229.26 1182.39 229.349 1182.07 229.528C1181.76 229.703 1181.52 229.957 1181.34 230.289C1181.16 230.621 1181.07 231.024 1181.07 231.497Z" fill="black"/>
<path d="M1208.26 225.25L1197.74 235.25" stroke="black" stroke-width="3" stroke-linecap="round" stroke-linejoin="round"/>
<path d="M1197.74 225.25L1208.26 235.25" stroke="black" stroke-width="3" stroke-linecap="round" stroke-linejoin="round"/>
<rect x="168" y="246.5" width="1104" height="571" rx="8" fill="white"/>
<path d="M576.642 494.5V459.591H585.08V474.352H585.54L597.08 459.591H607.017L594.642 475.17L607.239 494.5H597.148L588.455 480.778L585.08 485.04V494.5H576.642ZM618.104 459.591V494.5H609.769V459.591H618.104ZM630.214 494.943C628.544 494.943 627.061 494.665 625.766 494.108C624.482 493.54 623.464 492.687 622.714 491.551C621.976 490.403 621.607 488.966 621.607 487.239C621.607 485.784 621.862 484.557 622.374 483.557C622.885 482.557 623.589 481.744 624.487 481.119C625.385 480.494 626.419 480.023 627.589 479.705C628.76 479.375 630.01 479.153 631.339 479.04C632.828 478.903 634.027 478.761 634.936 478.614C635.845 478.455 636.504 478.233 636.913 477.949C637.334 477.653 637.544 477.239 637.544 476.705V476.619C637.544 475.744 637.243 475.068 636.641 474.591C636.038 474.114 635.226 473.875 634.203 473.875C633.101 473.875 632.214 474.114 631.544 474.591C630.874 475.068 630.447 475.727 630.266 476.568L622.578 476.295C622.805 474.705 623.391 473.284 624.334 472.034C625.288 470.773 626.595 469.784 628.254 469.068C629.925 468.341 631.93 467.977 634.271 467.977C635.942 467.977 637.482 468.176 638.891 468.574C640.3 468.96 641.527 469.528 642.572 470.278C643.618 471.017 644.425 471.926 644.993 473.006C645.572 474.085 645.862 475.318 645.862 476.705V494.5H638.021V490.852H637.817C637.351 491.739 636.754 492.489 636.027 493.102C635.311 493.716 634.464 494.176 633.487 494.483C632.521 494.79 631.43 494.943 630.214 494.943ZM632.788 489.489C633.686 489.489 634.493 489.307 635.209 488.943C635.936 488.58 636.516 488.08 636.947 487.443C637.379 486.795 637.595 486.045 637.595 485.193V482.705C637.357 482.83 637.067 482.943 636.726 483.045C636.396 483.148 636.033 483.244 635.635 483.335C635.237 483.426 634.828 483.506 634.408 483.574C633.987 483.642 633.584 483.705 633.197 483.761C632.413 483.886 631.743 484.08 631.186 484.341C630.641 484.602 630.22 484.943 629.925 485.364C629.641 485.773 629.499 486.261 629.499 486.83C629.499 487.693 629.805 488.352 630.419 488.807C631.044 489.261 631.834 489.489 632.788 489.489ZM657.763 494.943C656.093 494.943 654.61 494.665 653.315 494.108C652.031 493.54 651.013 492.687 650.263 491.551C649.525 490.403 649.156 488.966 649.156 487.239C649.156 485.784 649.411 484.557 649.923 483.557C650.434 482.557 651.138 481.744 652.036 481.119C652.934 480.494 653.968 480.023 655.138 479.705C656.309 479.375 657.559 479.153 658.888 479.04C660.377 478.903 661.576 478.761 662.485 478.614C663.394 478.455 664.053 478.233 664.462 477.949C664.883 477.653 665.093 477.239 665.093 476.705V476.619C665.093 475.744 664.792 475.068 664.19 474.591C663.587 474.114 662.775 473.875 661.752 473.875C660.65 473.875 659.763 474.114 659.093 474.591C658.423 475.068 657.996 475.727 657.815 476.568L650.127 476.295C650.354 474.705 650.94 473.284 651.883 472.034C652.837 470.773 654.144 469.784 655.803 469.068C657.474 468.341 659.479 467.977 661.82 467.977C663.491 467.977 665.031 468.176 666.44 468.574C667.849 468.96 669.076 469.528 670.121 470.278C671.167 471.017 671.974 471.926 672.542 473.006C673.121 474.085 673.411 475.318 673.411 476.705V494.5H665.57V490.852H665.366C664.9 491.739 664.303 492.489 663.576 493.102C662.86 493.716 662.013 494.176 661.036 494.483C660.07 494.79 658.979 494.943 657.763 494.943ZM660.337 489.489C661.235 489.489 662.042 489.307 662.758 488.943C663.485 488.58 664.065 488.08 664.496 487.443C664.928 486.795 665.144 486.045 665.144 485.193V482.705C664.906 482.83 664.616 482.943 664.275 483.045C663.945 483.148 663.582 483.244 663.184 483.335C662.786 483.426 662.377 483.506 661.957 483.574C661.536 483.642 661.133 483.705 660.746 483.761C659.962 483.886 659.292 484.08 658.735 484.341C658.19 484.602 657.769 484.943 657.474 485.364C657.19 485.773 657.048 486.261 657.048 486.83C657.048 487.693 657.354 488.352 657.968 488.807C658.593 489.261 659.383 489.489 660.337 489.489ZM677.932 494.5V468.318H686.028V473.091H686.301C686.778 471.364 687.557 470.08 688.636 469.239C689.716 468.386 690.972 467.96 692.403 467.96C692.79 467.96 693.187 467.989 693.597 468.045C694.006 468.091 694.386 468.165 694.739 468.267V475.511C694.341 475.375 693.818 475.267 693.17 475.188C692.534 475.108 691.966 475.068 691.466 475.068C690.477 475.068 689.585 475.29 688.79 475.733C688.006 476.165 687.386 476.773 686.932 477.557C686.489 478.33 686.267 479.239 686.267 480.284V494.5H677.932ZM707.295 494.5V468.318H715.631V494.5H707.295ZM711.472 465.267C710.301 465.267 709.295 464.881 708.455 464.108C707.614 463.324 707.193 462.381 707.193 461.278C707.193 460.187 707.614 459.256 708.455 458.483C709.295 457.699 710.301 457.307 711.472 457.307C712.653 457.307 713.659 457.699 714.489 458.483C715.33 459.256 715.75 460.187 715.75 461.278C715.75 462.381 715.33 463.324 714.489 464.108C713.659 464.881 712.653 465.267 711.472 465.267ZM743.218 476.312L735.565 476.517C735.485 475.972 735.269 475.489 734.917 475.068C734.565 474.636 734.104 474.301 733.536 474.062C732.979 473.812 732.332 473.688 731.593 473.688C730.627 473.688 729.803 473.881 729.121 474.267C728.451 474.653 728.121 475.176 728.133 475.835C728.121 476.347 728.326 476.79 728.746 477.165C729.178 477.54 729.945 477.841 731.048 478.068L736.093 479.023C738.707 479.523 740.65 480.352 741.923 481.511C743.207 482.67 743.854 484.205 743.866 486.114C743.854 487.909 743.32 489.472 742.263 490.801C741.218 492.131 739.786 493.165 737.968 493.903C736.15 494.631 734.07 494.994 731.729 494.994C727.991 494.994 725.042 494.227 722.883 492.693C720.735 491.148 719.508 489.08 719.201 486.489L727.434 486.284C727.616 487.239 728.087 487.966 728.849 488.466C729.61 488.966 730.582 489.216 731.763 489.216C732.832 489.216 733.701 489.017 734.371 488.619C735.042 488.222 735.383 487.693 735.394 487.034C735.383 486.443 735.121 485.972 734.61 485.619C734.099 485.256 733.298 484.972 732.207 484.767L727.638 483.898C725.013 483.42 723.059 482.54 721.775 481.256C720.491 479.96 719.854 478.312 719.866 476.312C719.854 474.562 720.32 473.068 721.263 471.83C722.207 470.58 723.548 469.625 725.286 468.966C727.025 468.307 729.076 467.977 731.44 467.977C734.985 467.977 737.781 468.722 739.826 470.21C741.871 471.687 743.002 473.722 743.218 476.312ZM764.647 487.631L764.681 477.693H765.84L773.204 468.318H782.647L771.704 481.75H769.505L764.647 487.631ZM757.13 494.5V459.591H765.465V494.5H757.13ZM773.391 494.5L766.539 483.625L772.028 477.71L783.022 494.5H773.391ZM796.214 494.994C793.476 494.994 791.112 494.455 789.124 493.375C787.146 492.284 785.624 490.733 784.555 488.722C783.499 486.699 782.97 484.295 782.97 481.511C782.97 478.807 783.504 476.443 784.572 474.42C785.641 472.386 787.146 470.807 789.089 469.682C791.033 468.545 793.322 467.977 795.959 467.977C797.822 467.977 799.527 468.267 801.072 468.847C802.618 469.426 803.953 470.284 805.078 471.42C806.203 472.557 807.078 473.96 807.703 475.631C808.328 477.29 808.641 479.193 808.641 481.341V483.42H785.885V478.58H800.885C800.874 477.693 800.663 476.903 800.254 476.21C799.845 475.517 799.283 474.977 798.567 474.591C797.862 474.193 797.05 473.994 796.129 473.994C795.197 473.994 794.362 474.205 793.624 474.625C792.885 475.034 792.3 475.597 791.868 476.312C791.436 477.017 791.209 477.818 791.186 478.716V483.642C791.186 484.71 791.396 485.648 791.817 486.455C792.237 487.25 792.834 487.869 793.606 488.312C794.379 488.756 795.3 488.977 796.368 488.977C797.106 488.977 797.777 488.875 798.379 488.67C798.981 488.466 799.499 488.165 799.93 487.767C800.362 487.369 800.686 486.881 800.902 486.301L808.555 486.523C808.237 488.239 807.538 489.733 806.459 491.006C805.391 492.267 803.987 493.25 802.249 493.955C800.51 494.648 798.499 494.994 796.214 494.994ZM824.56 494.994C821.822 494.994 819.458 494.455 817.469 493.375C815.492 492.284 813.969 490.733 812.901 488.722C811.844 486.699 811.316 484.295 811.316 481.511C811.316 478.807 811.85 476.443 812.918 474.42C813.986 472.386 815.492 470.807 817.435 469.682C819.378 468.545 821.668 467.977 824.305 467.977C826.168 467.977 827.873 468.267 829.418 468.847C830.964 469.426 832.299 470.284 833.424 471.42C834.549 472.557 835.424 473.96 836.049 475.631C836.674 477.29 836.986 479.193 836.986 481.341V483.42H814.231V478.58H829.231C829.219 477.693 829.009 476.903 828.6 476.21C828.191 475.517 827.628 474.977 826.913 474.591C826.208 474.193 825.396 473.994 824.475 473.994C823.543 473.994 822.708 474.205 821.969 474.625C821.231 475.034 820.646 475.597 820.214 476.312C819.782 477.017 819.555 477.818 819.532 478.716V483.642C819.532 484.71 819.742 485.648 820.163 486.455C820.583 487.25 821.18 487.869 821.952 488.312C822.725 488.756 823.646 488.977 824.714 488.977C825.452 488.977 826.123 488.875 826.725 488.67C827.327 488.466 827.844 488.165 828.276 487.767C828.708 487.369 829.032 486.881 829.248 486.301L836.901 486.523C836.583 488.239 835.884 489.733 834.805 491.006C833.736 492.267 832.333 493.25 830.594 493.955C828.856 494.648 826.844 494.994 824.56 494.994ZM863.526 476.312L855.872 476.517C855.793 475.972 855.577 475.489 855.224 475.068C854.872 474.636 854.412 474.301 853.844 474.062C853.287 473.812 852.639 473.688 851.901 473.688C850.935 473.688 850.111 473.881 849.429 474.267C848.758 474.653 848.429 475.176 848.44 475.835C848.429 476.347 848.633 476.79 849.054 477.165C849.486 477.54 850.253 477.841 851.355 478.068L856.401 479.023C859.014 479.523 860.957 480.352 862.23 481.511C863.514 482.67 864.162 484.205 864.173 486.114C864.162 487.909 863.628 489.472 862.571 490.801C861.526 492.131 860.094 493.165 858.276 493.903C856.457 494.631 854.378 494.994 852.037 494.994C848.298 494.994 845.349 494.227 843.19 492.693C841.043 491.148 839.815 489.08 839.508 486.489L847.741 486.284C847.923 487.239 848.395 487.966 849.156 488.466C849.918 488.966 850.889 489.216 852.071 489.216C853.139 489.216 854.008 489.017 854.679 488.619C855.349 488.222 855.69 487.693 855.702 487.034C855.69 486.443 855.429 485.972 854.918 485.619C854.406 485.256 853.605 484.972 852.514 484.767L847.946 483.898C845.321 483.42 843.366 482.54 842.082 481.256C840.798 479.96 840.162 478.312 840.173 476.312C840.162 474.562 840.628 473.068 841.571 471.83C842.514 470.58 843.855 469.625 845.594 468.966C847.332 468.307 849.383 467.977 851.747 467.977C855.293 467.977 858.088 468.722 860.133 470.21C862.179 471.687 863.31 473.722 863.526 476.312Z" fill="black"/>
<rect x="537.5" y="516.5" width="365" height="94" rx="47" fill="#FCFF6C"/>
<path d="M676.222 572.5V555.045H679.384V569.849H687.071V572.5H676.222ZM695.33 572.756C694.018 572.756 692.884 572.483 691.93 571.938C690.981 571.386 690.251 570.608 689.74 569.602C689.228 568.591 688.972 567.401 688.972 566.031C688.972 564.685 689.228 563.503 689.74 562.486C690.257 561.463 690.978 560.668 691.904 560.099C692.83 559.526 693.918 559.239 695.168 559.239C695.975 559.239 696.737 559.369 697.453 559.631C698.174 559.886 698.811 560.284 699.362 560.824C699.919 561.364 700.356 562.051 700.674 562.886C700.992 563.716 701.151 564.705 701.151 565.852V566.798H690.421V564.719H698.194C698.188 564.128 698.061 563.602 697.811 563.142C697.561 562.676 697.211 562.31 696.762 562.043C696.319 561.776 695.802 561.642 695.211 561.642C694.58 561.642 694.026 561.795 693.549 562.102C693.072 562.403 692.7 562.801 692.433 563.295C692.171 563.784 692.038 564.321 692.032 564.906V566.722C692.032 567.483 692.171 568.136 692.45 568.682C692.728 569.222 693.117 569.636 693.617 569.926C694.117 570.21 694.703 570.352 695.373 570.352C695.822 570.352 696.228 570.29 696.592 570.165C696.955 570.034 697.271 569.844 697.538 569.594C697.805 569.344 698.007 569.034 698.143 568.665L701.024 568.989C700.842 569.75 700.495 570.415 699.984 570.983C699.478 571.545 698.83 571.983 698.041 572.295C697.251 572.602 696.347 572.756 695.33 572.756ZM714.936 559.409L710.274 572.5H706.865L702.203 559.409H705.493L708.501 569.134H708.637L711.654 559.409H714.936ZM722.277 572.756C720.964 572.756 719.831 572.483 718.876 571.938C717.927 571.386 717.197 570.608 716.686 569.602C716.175 568.591 715.919 567.401 715.919 566.031C715.919 564.685 716.175 563.503 716.686 562.486C717.203 561.463 717.925 560.668 718.851 560.099C719.777 559.526 720.865 559.239 722.115 559.239C722.922 559.239 723.683 559.369 724.399 559.631C725.121 559.886 725.757 560.284 726.308 560.824C726.865 561.364 727.302 562.051 727.621 562.886C727.939 563.716 728.098 564.705 728.098 565.852V566.798H717.368V564.719H725.14C725.135 564.128 725.007 563.602 724.757 563.142C724.507 562.676 724.157 562.31 723.709 562.043C723.265 561.776 722.748 561.642 722.157 561.642C721.527 561.642 720.973 561.795 720.496 562.102C720.018 562.403 719.646 562.801 719.379 563.295C719.118 563.784 718.984 564.321 718.979 564.906V566.722C718.979 567.483 719.118 568.136 719.396 568.682C719.675 569.222 720.064 569.636 720.564 569.926C721.064 570.21 721.649 570.352 722.319 570.352C722.768 570.352 723.175 570.29 723.538 570.165C723.902 570.034 724.217 569.844 724.484 569.594C724.751 569.344 724.953 569.034 725.089 568.665L727.97 568.989C727.788 569.75 727.442 570.415 726.93 570.983C726.425 571.545 725.777 571.983 724.987 572.295C724.197 572.602 723.294 572.756 722.277 572.756ZM730.564 572.5V559.409H733.555V561.591H733.692C733.93 560.835 734.339 560.253 734.919 559.844C735.504 559.429 736.172 559.222 736.922 559.222C737.092 559.222 737.283 559.23 737.493 559.247C737.709 559.259 737.888 559.278 738.03 559.307V562.145C737.899 562.099 737.692 562.06 737.408 562.026C737.129 561.986 736.859 561.966 736.598 561.966C736.036 561.966 735.53 562.088 735.081 562.332C734.638 562.571 734.288 562.903 734.033 563.33C733.777 563.756 733.649 564.247 733.649 564.804V572.5H730.564ZM745.745 572.5V559.409H748.83V572.5H745.745ZM747.296 557.551C746.807 557.551 746.387 557.389 746.034 557.065C745.682 556.736 745.506 556.341 745.506 555.881C745.506 555.415 745.682 555.02 746.034 554.696C746.387 554.366 746.807 554.202 747.296 554.202C747.79 554.202 748.211 554.366 748.557 554.696C748.909 555.02 749.086 555.415 749.086 555.881C749.086 556.341 748.909 556.736 748.557 557.065C748.211 557.389 747.79 557.551 747.296 557.551ZM754.944 564.83V572.5H751.858V559.409H754.807V561.634H754.961C755.262 560.901 755.742 560.318 756.401 559.886C757.066 559.455 757.887 559.239 758.864 559.239C759.768 559.239 760.554 559.432 761.225 559.818C761.901 560.205 762.424 560.764 762.793 561.497C763.168 562.23 763.353 563.119 763.347 564.165V572.5H760.262V564.642C760.262 563.767 760.035 563.082 759.58 562.588C759.131 562.094 758.509 561.847 757.714 561.847C757.174 561.847 756.694 561.966 756.273 562.205C755.858 562.437 755.532 562.776 755.293 563.219C755.06 563.662 754.944 564.199 754.944 564.83Z" fill="black"/>
<rect x="168" y="817.5" width="1104" height="32.5" rx="6" fill="white"/>
<g clip-path="url(#clip0_1349_513)">
<rect x="217" y="825.75" width="1006" height="16" rx="8" fill="#FCFF6C"/>
<rect x="217" y="825.75" width="1006" height="16" rx="8" fill="#EAB308"/>
</g>
<rect x="168" y="850" width="528" height="40" rx="6" fill="white"/>
<path d="M411.667 870H402.333" stroke="#0F172A" stroke-width="2" stroke-linecap="round" stroke-linejoin="round"/>
<path d="M407 874.666L402.333 870L407 865.333" stroke="#0F172A" stroke-width="2" stroke-linecap="round" stroke-linejoin="round"/>
<path d="M430.532 867.364L427.763 875H426.172L423.398 867.364H424.994L426.928 873.24H427.007L428.936 867.364H430.532ZM434.886 875.154C434.17 875.154 433.545 874.99 433.012 874.662C432.478 874.334 432.064 873.875 431.769 873.285C431.474 872.695 431.326 872.005 431.326 871.217C431.326 870.424 431.474 869.732 431.769 869.138C432.064 868.545 432.478 868.085 433.012 867.756C433.545 867.428 434.17 867.264 434.886 867.264C435.602 867.264 436.227 867.428 436.76 867.756C437.294 868.085 437.708 868.545 438.003 869.138C438.298 869.732 438.445 870.424 438.445 871.217C438.445 872.005 438.298 872.695 438.003 873.285C437.708 873.875 437.294 874.334 436.76 874.662C436.227 874.99 435.602 875.154 434.886 875.154ZM434.891 873.906C435.355 873.906 435.739 873.784 436.044 873.538C436.349 873.293 436.575 872.967 436.72 872.559C436.869 872.151 436.944 871.702 436.944 871.212C436.944 870.724 436.869 870.277 436.72 869.869C436.575 869.458 436.349 869.129 436.044 868.88C435.739 868.631 435.355 868.507 434.891 868.507C434.423 868.507 434.036 868.631 433.727 868.88C433.423 869.129 433.195 869.458 433.046 869.869C432.901 870.277 432.828 870.724 432.828 871.212C432.828 871.702 432.901 872.151 433.046 872.559C433.195 872.967 433.423 873.293 433.727 873.538C434.036 873.784 434.423 873.906 434.891 873.906ZM440.105 875V867.364H441.542V868.577H441.621C441.76 868.166 442.006 867.843 442.357 867.607C442.712 867.369 443.113 867.249 443.56 867.249C443.653 867.249 443.762 867.253 443.888 867.259C444.017 867.266 444.118 867.274 444.191 867.284V868.706C444.132 868.689 444.026 868.671 443.873 868.651C443.721 868.628 443.568 868.616 443.416 868.616C443.065 868.616 442.751 868.691 442.476 868.84C442.204 868.986 441.989 869.19 441.83 869.452C441.671 869.71 441.591 870.005 441.591 870.337V875H440.105ZM445.478 875V867.364H446.964V875H445.478ZM446.229 866.185C445.97 866.185 445.748 866.099 445.562 865.927C445.38 865.751 445.289 865.542 445.289 865.3C445.289 865.055 445.38 864.846 445.562 864.674C445.748 864.498 445.97 864.411 446.229 864.411C446.487 864.411 446.707 864.498 446.89 864.674C447.075 864.846 447.168 865.055 447.168 865.3C447.168 865.542 447.075 865.751 446.89 865.927C446.707 866.099 446.487 866.185 446.229 866.185ZM452.166 878.023C451.559 878.023 451.037 877.943 450.6 877.784C450.166 877.625 449.811 877.415 449.536 877.153C449.261 876.891 449.055 876.604 448.919 876.293L450.197 875.766C450.287 875.911 450.406 876.066 450.555 876.228C450.708 876.394 450.913 876.535 451.172 876.651C451.433 876.767 451.77 876.825 452.181 876.825C452.744 876.825 453.21 876.687 453.578 876.412C453.946 876.14 454.13 875.706 454.13 875.109V873.608H454.035C453.946 873.77 453.816 873.951 453.647 874.15C453.482 874.349 453.253 874.521 452.961 874.667C452.67 874.813 452.29 874.886 451.823 874.886C451.22 874.886 450.676 874.745 450.192 874.463C449.712 874.178 449.33 873.759 449.049 873.205C448.77 872.648 448.631 871.964 448.631 871.152C448.631 870.34 448.769 869.644 449.044 869.064C449.322 868.484 449.703 868.04 450.187 867.732C450.671 867.42 451.22 867.264 451.833 867.264C452.307 867.264 452.69 867.344 452.981 867.503C453.273 867.659 453.5 867.841 453.662 868.05C453.828 868.259 453.956 868.442 454.045 868.602H454.154V867.364H455.611V875.169C455.611 875.825 455.459 876.364 455.154 876.785C454.849 877.206 454.436 877.517 453.916 877.719C453.399 877.922 452.815 878.023 452.166 878.023ZM452.151 873.653C452.578 873.653 452.94 873.553 453.235 873.354C453.533 873.152 453.758 872.864 453.911 872.489C454.067 872.112 454.145 871.659 454.145 871.132C454.145 870.618 454.068 870.166 453.916 869.775C453.763 869.384 453.54 869.079 453.245 868.86C452.95 868.638 452.585 868.527 452.151 868.527C451.703 868.527 451.331 868.643 451.032 868.875C450.734 869.104 450.509 869.415 450.356 869.81C450.207 870.204 450.132 870.645 450.132 871.132C450.132 871.633 450.209 872.072 450.361 872.45C450.514 872.827 450.739 873.122 451.037 873.335C451.339 873.547 451.71 873.653 452.151 873.653ZM460.896 875.154C460.144 875.154 459.496 874.993 458.952 874.672C458.412 874.347 457.994 873.891 457.699 873.305C457.408 872.715 457.262 872.024 457.262 871.232C457.262 870.449 457.408 869.76 457.699 869.163C457.994 868.567 458.405 868.101 458.932 867.766C459.462 867.432 460.082 867.264 460.792 867.264C461.222 867.264 461.64 867.335 462.044 867.478C462.449 867.621 462.812 867.844 463.133 868.149C463.455 868.454 463.708 868.85 463.894 869.337C464.079 869.821 464.172 870.41 464.172 871.102V871.629H458.102V870.516H462.716C462.716 870.125 462.636 869.778 462.477 869.477C462.318 869.172 462.094 868.931 461.806 868.756C461.521 868.58 461.186 868.492 460.801 868.492C460.384 868.492 460.019 868.595 459.708 868.8C459.4 869.003 459.161 869.268 458.992 869.596C458.826 869.921 458.743 870.274 458.743 870.655V871.525C458.743 872.035 458.833 872.469 459.012 872.827C459.194 873.185 459.448 873.459 459.772 873.648C460.097 873.833 460.477 873.926 460.911 873.926C461.193 873.926 461.449 873.886 461.681 873.807C461.913 873.724 462.114 873.601 462.283 873.439C462.452 873.277 462.581 873.076 462.671 872.837L464.078 873.091C463.965 873.505 463.763 873.868 463.471 874.18C463.183 874.488 462.82 874.728 462.382 874.901C461.948 875.07 461.453 875.154 460.896 875.154Z" fill="#0F172A"/>
<rect x="744" y="850" width="528" height="40" rx="6" fill="white"/>
<path d="M972.532 867.364L969.763 875H968.172L965.398 867.364H966.994L968.928 873.24H969.007L970.936 867.364H972.532ZM976.886 875.154C976.17 875.154 975.545 874.99 975.012 874.662C974.478 874.334 974.064 873.875 973.769 873.285C973.474 872.695 973.326 872.005 973.326 871.217C973.326 870.424 973.474 869.732 973.769 869.138C974.064 868.545 974.478 868.085 975.012 867.756C975.545 867.428 976.17 867.264 976.886 867.264C977.602 867.264 978.227 867.428 978.76 867.756C979.294 868.085 979.708 868.545 980.003 869.138C980.298 869.732 980.445 870.424 980.445 871.217C980.445 872.005 980.298 872.695 980.003 873.285C979.708 873.875 979.294 874.334 978.76 874.662C978.227 874.99 977.602 875.154 976.886 875.154ZM976.891 873.906C977.355 873.906 977.739 873.784 978.044 873.538C978.349 873.293 978.575 872.967 978.72 872.559C978.869 872.151 978.944 871.702 978.944 871.212C978.944 870.724 978.869 870.277 978.72 869.869C978.575 869.458 978.349 869.129 978.044 868.88C977.739 868.631 977.355 868.507 976.891 868.507C976.423 868.507 976.036 868.631 975.727 868.88C975.423 869.129 975.195 869.458 975.046 869.869C974.901 870.277 974.828 870.724 974.828 871.212C974.828 871.702 974.901 872.151 975.046 872.559C975.195 872.967 975.423 873.293 975.727 873.538C976.036 873.784 976.423 873.906 976.891 873.906ZM983.591 864.818V875H982.105V864.818H983.591ZM988.793 878.023C988.186 878.023 987.664 877.943 987.227 877.784C986.793 877.625 986.438 877.415 986.163 877.153C985.888 876.891 985.682 876.604 985.546 876.293L986.824 875.766C986.914 875.911 987.033 876.066 987.182 876.228C987.334 876.394 987.54 876.535 987.798 876.651C988.06 876.767 988.397 876.825 988.808 876.825C989.371 876.825 989.837 876.687 990.205 876.412C990.573 876.14 990.757 875.706 990.757 875.109V873.608H990.662C990.573 873.77 990.443 873.951 990.274 874.15C990.109 874.349 989.88 874.521 989.588 874.667C989.297 874.813 988.917 874.886 988.45 874.886C987.847 874.886 987.303 874.745 986.819 874.463C986.338 874.178 985.957 873.759 985.676 873.205C985.397 872.648 985.258 871.964 985.258 871.152C985.258 870.34 985.396 869.644 985.671 869.064C985.949 868.484 986.33 868.04 986.814 867.732C987.298 867.42 987.847 867.264 988.46 867.264C988.934 867.264 989.316 867.344 989.608 867.503C989.9 867.659 990.127 867.841 990.289 868.05C990.455 868.259 990.583 868.442 990.672 868.602H990.781V867.364H992.238V875.169C992.238 875.825 992.086 876.364 991.781 876.785C991.476 877.206 991.063 877.517 990.543 877.719C990.026 877.922 989.442 878.023 988.793 878.023ZM988.778 873.653C989.205 873.653 989.567 873.553 989.862 873.354C990.16 873.152 990.385 872.864 990.538 872.489C990.694 872.112 990.771 871.659 990.771 871.132C990.771 870.618 990.695 870.166 990.543 869.775C990.39 869.384 990.167 869.079 989.872 868.86C989.577 868.638 989.212 868.527 988.778 868.527C988.33 868.527 987.958 868.643 987.659 868.875C987.361 869.104 987.136 869.415 986.983 869.81C986.834 870.204 986.759 870.645 986.759 871.132C986.759 871.633 986.836 872.072 986.988 872.45C987.141 872.827 987.366 873.122 987.664 873.335C987.966 873.547 988.337 873.653 988.778 873.653ZM997.523 875.154C996.771 875.154 996.123 874.993 995.579 874.672C995.039 874.347 994.621 873.891 994.326 873.305C994.035 872.715 993.889 872.024 993.889 871.232C993.889 870.449 994.035 869.76 994.326 869.163C994.621 868.567 995.032 868.101 995.559 867.766C996.089 867.432 996.709 867.264 997.419 867.264C997.849 867.264 998.267 867.335 998.671 867.478C999.076 867.621 999.439 867.844 999.76 868.149C1000.08 868.454 1000.34 868.85 1000.52 869.337C1000.71 869.821 1000.8 870.41 1000.8 871.102V871.629H994.729V870.516H999.343C999.343 870.125 999.263 869.778 999.104 869.477C998.945 869.172 998.721 868.931 998.433 868.756C998.148 868.58 997.813 868.492 997.428 868.492C997.011 868.492 996.646 868.595 996.335 868.8C996.026 869.003 995.788 869.268 995.619 869.596C995.453 869.921 995.37 870.274 995.37 870.655V871.525C995.37 872.035 995.46 872.469 995.639 872.827C995.821 873.185 996.075 873.459 996.399 873.648C996.724 873.833 997.104 873.926 997.538 873.926C997.82 873.926 998.076 873.886 998.308 873.807C998.54 873.724 998.741 873.601 998.91 873.439C999.079 873.277 999.208 873.076 999.298 872.837L1000.7 873.091C1000.59 873.505 1000.39 873.868 1000.1 874.18C999.81 874.488 999.447 874.728 999.009 874.901C998.575 875.07 998.08 875.154 997.523 875.154ZM1003.94 870.466V875H1002.45V867.364H1003.88V868.607H1003.97C1004.15 868.202 1004.42 867.877 1004.8 867.632C1005.17 867.387 1005.65 867.264 1006.22 867.264C1006.74 867.264 1007.2 867.374 1007.59 867.592C1007.98 867.808 1008.28 868.129 1008.5 868.557C1008.71 868.984 1008.82 869.513 1008.82 870.143V875H1007.34V870.322C1007.34 869.768 1007.19 869.336 1006.9 869.024C1006.61 868.709 1006.22 868.552 1005.71 868.552C1005.37 868.552 1005.06 868.626 1004.8 868.776C1004.53 868.925 1004.32 869.143 1004.16 869.432C1004.01 869.717 1003.94 870.062 1003.94 870.466ZM1013.67 875.149C1013.06 875.149 1012.51 874.992 1012.02 874.677C1011.54 874.359 1011.17 873.906 1010.89 873.32C1010.62 872.73 1010.48 872.022 1010.48 871.197C1010.48 870.371 1010.62 869.665 1010.9 869.079C1011.17 868.492 1011.55 868.043 1012.04 867.732C1012.52 867.42 1013.07 867.264 1013.68 867.264C1014.16 867.264 1014.54 867.344 1014.83 867.503C1015.12 867.659 1015.34 867.841 1015.5 868.05C1015.67 868.259 1015.79 868.442 1015.88 868.602H1015.97V864.818H1017.46V875H1016.01V873.812H1015.88C1015.79 873.974 1015.66 874.16 1015.49 874.369C1015.33 874.577 1015.1 874.76 1014.81 874.915C1014.52 875.071 1014.14 875.149 1013.67 875.149ZM1014 873.881C1014.43 873.881 1014.79 873.769 1015.09 873.543C1015.38 873.315 1015.61 872.998 1015.76 872.594C1015.92 872.189 1016 871.719 1016 871.182C1016 870.652 1015.92 870.187 1015.77 869.79C1015.61 869.392 1015.39 869.082 1015.1 868.86C1014.8 868.638 1014.44 868.527 1014 868.527C1013.56 868.527 1013.18 868.643 1012.88 868.875C1012.59 869.107 1012.36 869.424 1012.21 869.825C1012.06 870.226 1011.98 870.678 1011.98 871.182C1011.98 871.692 1012.06 872.151 1012.21 872.559C1012.37 872.967 1012.59 873.29 1012.89 873.528C1013.19 873.764 1013.56 873.881 1014 873.881ZM1022.87 875.154C1022.12 875.154 1021.47 874.993 1020.93 874.672C1020.39 874.347 1019.97 873.891 1019.67 873.305C1019.38 872.715 1019.24 872.024 1019.24 871.232C1019.24 870.449 1019.38 869.76 1019.67 869.163C1019.97 868.567 1020.38 868.101 1020.91 867.766C1021.44 867.432 1022.06 867.264 1022.77 867.264C1023.2 867.264 1023.61 867.335 1024.02 867.478C1024.42 867.621 1024.79 867.844 1025.11 868.149C1025.43 868.454 1025.68 868.85 1025.87 869.337C1026.05 869.821 1026.15 870.41 1026.15 871.102V871.629H1020.08V870.516H1024.69C1024.69 870.125 1024.61 869.778 1024.45 869.477C1024.29 869.172 1024.07 868.931 1023.78 868.756C1023.5 868.58 1023.16 868.492 1022.78 868.492C1022.36 868.492 1021.99 868.595 1021.68 868.8C1021.37 869.003 1021.14 869.268 1020.97 869.596C1020.8 869.921 1020.72 870.274 1020.72 870.655V871.525C1020.72 872.035 1020.81 872.469 1020.99 872.827C1021.17 873.185 1021.42 873.459 1021.75 873.648C1022.07 873.833 1022.45 873.926 1022.89 873.926C1023.17 873.926 1023.42 873.886 1023.66 873.807C1023.89 873.724 1024.09 873.601 1024.26 873.439C1024.43 873.277 1024.56 873.076 1024.65 872.837L1026.05 873.091C1025.94 873.505 1025.74 873.868 1025.45 874.18C1025.16 874.488 1024.79 874.728 1024.36 874.901C1023.92 875.07 1023.43 875.154 1022.87 875.154Z" fill="#0F172A"/>
<path d="M1038.33 870H1047.67" stroke="#0F172A" stroke-width="1.33333" stroke-linecap="round" stroke-linejoin="round"/>
<path d="M1043 865.333L1047.67 870L1043 874.666" stroke="#0F172A" stroke-width="1.33333" stroke-linecap="round" stroke-linejoin="round"/>
<defs>
<clipPath id="clip0_1349_513">
<rect x="217" y="825.75" width="1006" height="16" rx="8" fill="white"/>
</clipPath>
</defs>
</svg>
